<?xml version="1.0" encoding="utf-8"?>
<!-- Generator: Adobe Illustrator 18.1.1, SVG Export Plug-In . SVG Version: 6.00 Build 0)  -->
<!DOCTYPE svg PUBLIC "-//W3C//DTD SVG 1.1//EN" "http://www.w3.org/Graphics/SVG/1.1/DTD/svg11.dtd">
<svg version="1.1" id="Layer_1" xmlns="http://www.w3.org/2000/svg" xmlns:xlink="http://www.w3.org/1999/xlink" x="0px" y="0px"
	 viewBox="0 0 201 73" enable-background="new 0 0 201 73" xml:space="preserve">
<path fill="#FCB935" d="M188,3c5.5,0,10,4.5,10,10v47c0,5.5-4.5,10-10,10H13C7.5,70,3,65.5,3,60V13C3,7.5,7.5,3,13,3H188 M188,0H13
	C5.8,0,0,5.8,0,13v47c0,7.2,5.8,13,13,13h175c7.2,0,13-5.8,13-13V13C201,5.8,195.2,0,188,0L188,0z"/>
<g>
	<path fill-rule="evenodd" clip-rule="evenodd" fill="#FCB935" d="M38.9,14.2H21c-2.2,0-4.6,2.6-4.6,4.4v37.4c0,2,2.1,4.1,4.1,4.1
		h18.8c2,0,4.1-2.2,4.1-4.1V18.8C43.4,16.1,41,14.2,38.9,14.2z M29.9,59.1c-1.4,0-2.6-1.2-2.6-2.6c0-1.4,1.2-2.6,2.6-2.6
		c1.4,0,2.6,1.2,2.6,2.6C32.5,58,31.4,59.1,29.9,59.1z M40.2,52.4H19.6V21.7h20.6V52.4z"/>
</g>
<g>
	<path fill="#FCB935" d="M65.3,26.2l-0.5-1.4h-3.4l-0.5,1.4h-1.9l3.1-8h2.1l3.1,8H65.3z M63.1,19.9l-1.2,3.4h2.5L63.1,19.9z"/>
	<path fill="#FCB935" d="M71.1,26.2l-3.1-8H70l2.2,6.1l2.2-6.1h1.9l-3.1,8H71.1z"/>
	<path fill="#FCB935" d="M83.4,26.2L83,24.8h-3.4L79,26.2h-1.9l3.1-8h2.1l3.1,8H83.4z M81.2,19.9L80,23.3h2.5L81.2,19.9z"/>
	<path fill="#FCB935" d="M87,26.2v-8h1.7v8H87z"/>
	<path fill="#FCB935" d="M91.2,26.2v-8h1.7v6.5h3.4v1.5H91.2z"/>
	<path fill="#FCB935" d="M103.8,26.2l-0.5-1.4h-3.4l-0.5,1.4h-1.9l3.1-8h2.1l3.1,8H103.8z M101.6,19.9l-1.2,3.4h2.5L101.6,19.9z"/>
	<path fill="#FCB935" d="M107.4,26.2v-8h4.2c1.5,0,2.3,1,2.3,2c0,1-0.6,1.7-1.4,1.8c0.8,0.1,1.5,1,1.5,2c0,1.2-0.8,2.2-2.3,2.2
		H107.4z M112.2,20.5c0-0.5-0.4-0.9-0.9-0.9h-2.1v1.7h2.1C111.8,21.4,112.2,21,112.2,20.5z M112.3,23.8c0-0.5-0.4-0.9-1-0.9h-2.2
		v1.9h2.2C112,24.7,112.3,24.3,112.3,23.8z"/>
	<path fill="#FCB935" d="M116.2,26.2v-8h1.7v6.5h3.4v1.5H116.2z"/>
	<path fill="#FCB935" d="M123.4,26.2v-8h5.6v1.5h-3.9v1.7h3.9v1.5h-3.9v1.8h3.9v1.5H123.4z"/>
	<path fill="#FCB935" d="M134.8,22.2c0-2.4,1.8-4.1,4.2-4.1c2.4,0,4.2,1.7,4.2,4.1c0,2.4-1.8,4.1-4.2,4.1
		C136.6,26.3,134.8,24.6,134.8,22.2z M141.4,22.2c0-1.5-1-2.6-2.4-2.6c-1.5,0-2.4,1.1-2.4,2.6c0,1.5,0.9,2.6,2.4,2.6
		C140.5,24.8,141.4,23.7,141.4,22.2z"/>
	<path fill="#FCB935" d="M150.8,26.2L147,21v5.2h-1.7v-8h1.7l3.7,5v-5h1.7v8H150.8z"/>
	<path fill="#FCB935" d="M160.7,26.2v-6.5h-2.3v-1.5h6.4v1.5h-2.3v6.5H160.7z"/>
	<path fill="#FCB935" d="M172.2,26.2v-3.3h-3.8v3.3h-1.7v-8h1.7v3.1h3.8v-3.1h1.7v8H172.2z"/>
	<path fill="#FCB935" d="M176.3,26.2v-8h5.6v1.5H178v1.7h3.9v1.5H178v1.8h3.9v1.5H176.3z"/>
</g>
<g>
	<path fill="#FCB935" d="M60.7,48.1l-2.2,6.6h-2.8l7.1-20.9h3.2l7.1,20.9h-2.9l-2.2-6.6H60.7z M67.6,46l-2.1-6
		c-0.5-1.4-0.8-2.6-1.1-3.8h-0.1c-0.3,1.2-0.6,2.5-1.1,3.8l-2,6H67.6z"/>
	<path fill="#FCB935" d="M76.2,44.6c0-1.9-0.1-3.5-0.1-4.9h2.4l0.2,2.6h0.1c1.1-1.8,2.9-2.9,5.3-2.9c3.7,0,6.4,3.1,6.4,7.6
		c0,5.4-3.3,8.1-6.9,8.1c-2,0-3.7-0.9-4.6-2.4h-0.1v8.2h-2.7V44.6z M78.9,48.6c0,0.4,0,0.8,0.1,1.1c0.5,1.9,2.1,3.2,4.1,3.2
		c2.9,0,4.6-2.4,4.6-5.8c0-3-1.6-5.5-4.5-5.5c-1.9,0-3.6,1.3-4.1,3.3c-0.1,0.3-0.2,0.7-0.2,1.1V48.6z"/>
	<path fill="#FCB935" d="M93.9,44.6c0-1.9-0.1-3.5-0.1-4.9h2.4l0.2,2.6h0.1c1.1-1.8,2.9-2.9,5.3-2.9c3.7,0,6.4,3.1,6.4,7.6
		c0,5.4-3.3,8.1-6.9,8.1c-2,0-3.7-0.9-4.6-2.4h-0.1v8.2h-2.7V44.6z M96.6,48.6c0,0.4,0,0.8,0.1,1.1c0.5,1.9,2.1,3.2,4.1,3.2
		c2.9,0,4.6-2.4,4.6-5.8c0-3-1.6-5.5-4.5-5.5c-1.9,0-3.6,1.3-4.1,3.3c-0.1,0.3-0.2,0.7-0.2,1.1V48.6z"/>
	<path fill="#FCB935" d="M117.8,51.4c1.2,0.8,2.9,1.4,4.8,1.4c2.8,0,4.4-1.5,4.4-3.6c0-1.9-1.1-3.1-3.9-4.1c-3.4-1.2-5.5-3-5.5-6
		c0-3.3,2.7-5.7,6.8-5.7c2.1,0,3.7,0.5,4.6,1l-0.7,2.2c-0.7-0.4-2-1-3.9-1c-2.9,0-3.9,1.7-3.9,3.1c0,2,1.3,2.9,4.2,4
		c3.5,1.4,5.3,3.1,5.3,6.1c0,3.2-2.4,6-7.3,6c-2,0-4.2-0.6-5.3-1.4L117.8,51.4z"/>
	<path fill="#FCB935" d="M136.7,36.1v3.6h3.9v2.1h-3.9v8.1c0,1.9,0.5,2.9,2,2.9c0.7,0,1.2-0.1,1.6-0.2l0.1,2.1
		c-0.5,0.2-1.4,0.4-2.4,0.4c-1.3,0-2.3-0.4-2.9-1.1c-0.7-0.8-1.1-2.2-1.1-3.9v-8.2h-2.3v-2.1h2.3v-2.8L136.7,36.1z"/>
	<path fill="#FCB935" d="M157.2,47.1c0,5.6-3.9,8-7.5,8c-4,0-7.2-3-7.2-7.7c0-5,3.3-7.9,7.4-7.9C154.3,39.4,157.2,42.5,157.2,47.1z
		 M145.3,47.2c0,3.3,1.9,5.8,4.5,5.8c2.6,0,4.6-2.5,4.6-5.8c0-2.5-1.3-5.7-4.5-5.7C146.7,41.4,145.3,44.4,145.3,47.2z"/>
	<path fill="#FCB935" d="M160.7,44.4c0-1.8,0-3.3-0.1-4.7h2.4l0.1,3h0.1c0.7-2,2.4-3.3,4.2-3.3c0.3,0,0.5,0,0.7,0.1V42
		c-0.3-0.1-0.6-0.1-0.9-0.1c-1.9,0-3.3,1.4-3.7,3.5c-0.1,0.4-0.1,0.8-0.1,1.3v8h-2.7V44.4z"/>
	<path fill="#FCB935" d="M172.3,47.7c0.1,3.7,2.4,5.2,5.1,5.2c2,0,3.2-0.3,4.2-0.8l0.5,2c-1,0.4-2.6,1-5,1c-4.6,0-7.4-3.1-7.4-7.6
		c0-4.5,2.7-8.1,7-8.1c4.9,0,6.2,4.3,6.2,7c0,0.6,0,1-0.1,1.3H172.3z M180.3,45.7c0-1.7-0.7-4.4-3.8-4.4c-2.8,0-4,2.5-4.2,4.4H180.3
		z"/>
</g>
</svg>
