<?xml version="1.0" encoding="utf-8"?>
<!-- Generator: Adobe Illustrator 18.1.1, SVG Export Plug-In . SVG Version: 6.00 Build 0)  -->
<svg version="1.1" id="Layer_1" xmlns="http://www.w3.org/2000/svg" xmlns:xlink="http://www.w3.org/1999/xlink" x="0px" y="0px"
	 viewBox="0 0 612 792" enable-background="new 0 0 612 792" xml:space="preserve">
<g>
	<path d="M339.1,86.2c48.5-66.3,117.3-66.3,117.3-66.3s10.2,61.2-38.2,119.8C364.6,203.5,306,193.3,306,193.3
		S293.2,142.3,339.1,86.2z"/>
	<path d="M311.1,236.6c25.5,0,71.4-35.7,135.1-35.7c104.5,0,147.9,73.9,147.9,73.9s-81.6,40.8-81.6,142.8c0,114.7,102,153,102,153
		s-71.4,198.9-165.8,198.9c-43.4,0-79.1-30.6-124.9-30.6c-45.9,0-94.4,30.6-125,30.6C109.7,772.1,0,583.4,0,430.4
		C0,280,94.3,203.5,181.1,203.5C237.2,203.5,283.1,236.6,311.1,236.6z"/>
</g>
</svg>
