<?xml version="1.0" encoding="utf-8"?>
<!-- Generator: Adobe Illustrator 18.1.1, SVG Export Plug-In . SVG Version: 6.00 Build 0)  -->
<!DOCTYPE svg PUBLIC "-//W3C//DTD SVG 1.1//EN" "http://www.w3.org/Graphics/SVG/1.1/DTD/svg11.dtd">
<svg version="1.1" id="Coin-1" xmlns="http://www.w3.org/2000/svg" xmlns:xlink="http://www.w3.org/1999/xlink" x="0px" y="0px"
	 viewBox="0 0 380 204" enable-background="new 0 0 380 204" xml:space="preserve">
<g>
	<g>
		<path fill="#FFBA00" d="M102,204C45.8,204,0,158.2,0,102S45.8,0,102,0s102,45.8,102,102S158.2,204,102,204z M102,4
			C48,4,4,48,4,102c0,54,44,98,98,98s98-44,98-98C200,48,156,4,102,4z"/>
	</g>
	<g opacity="0.4">
		<g>
			<path fill="#FFBA00" d="M102.4,192c-1.1,0-2-0.9-2-2c0-1.1,0.9-2,2-2c9.7,0,19.3-1.7,28.6-5c0,0,0,0,0.1,0c1-0.4,2.2,0.2,2.5,1.2
				c0.4,1-0.2,2.2-1.2,2.5l-0.7-1.9l0.7,1.9C122.7,190.2,112.6,192,102.4,192C102.4,192,102.4,192,102.4,192z M93.1,191.6
				c-0.1,0-0.1,0-0.2,0c-10.2-1-20-3.8-29.3-8.2c-1-0.5-1.4-1.7-1-2.7c0.5-1,1.7-1.4,2.7-1c8.9,4.2,18.3,6.8,28,7.8
				c1.1,0.1,1.9,1.1,1.8,2.2C95,190.8,94.1,191.6,93.1,191.6z M157.6,172.2c-0.6,0-1.2-0.3-1.6-0.7c-0.7-0.9-0.6-2.1,0.3-2.8
				c2.3-1.9,4.6-4,6.7-6.1c0.8-0.8,2-0.8,2.8,0c0.8,0.8,0.8,2,0,2.8c-2.2,2.3-4.6,4.4-7.1,6.4C158.5,172.1,158,172.2,157.6,172.2z
				 M40.1,166.5c-0.5,0-1-0.2-1.4-0.6c-2.3-2.2-4.4-4.6-6.4-7.1c-0.7-0.9-0.6-2.1,0.3-2.8c0.9-0.7,2.1-0.6,2.8,0.3
				c1.9,2.3,4,4.6,6.1,6.7c0.8,0.8,0.8,2,0,2.8C41.1,166.3,40.6,166.5,40.1,166.5z M181.6,141.6c-0.3,0-0.6-0.1-0.9-0.2
				c-1-0.5-1.4-1.7-1-2.7c4.2-8.9,6.8-18.3,7.8-28c0.1-1.1,1.1-1.9,2.2-1.8c1.1,0.1,1.9,1.1,1.8,2.2c-1,10.2-3.8,20-8.2,29.3
				C183,141.2,182.3,141.6,181.6,141.6z M19.1,133.7c-0.8,0-1.5-0.5-1.8-1.3c0,0,0-0.1,0-0.1c-3.4-9.6-5.2-19.9-5.3-30.1
				c0-1.1,0.9-2.2,2-2.2c0,0,0,0,0,0c1.1,0,2,1.1,2,2.2c0,9.7,1.7,19.4,5.1,28.7c0.4,1-0.2,2.3-1.2,2.6
				C19.6,133.6,19.4,133.7,19.1,133.7z M190,104c-1.1,0-2-1.1-2-2.2c0-9.7-1.7-19.5-5.1-28.7l0-0.2c-0.4-1,0.2-2.2,1.2-2.6
				c1-0.4,2.2,0.2,2.6,1.2l0.1,0.2c3.5,9.7,5.2,19.9,5.3,30.1C192,102.9,191.1,104,190,104C190,104,190,104,190,104z M14.4,95.1
				c-0.1,0-0.1,0-0.2,0c-1.1-0.1-1.9-1.1-1.8-2.2c1-10.2,3.8-20,8.2-29.3c0.5-1,1.7-1.4,2.7-1c1,0.5,1.4,1.7,1,2.7
				c-4.2,8.9-6.8,18.3-7.8,28C16.3,94.3,15.4,95.1,14.4,95.1z M170.2,48.3c-0.6,0-1.2-0.3-1.5-0.7c-1.9-2.3-4-4.6-6.1-6.7
				c-0.8-0.8-0.8-2,0-2.8c0.8-0.8,2-0.8,2.8,0c2.3,2.2,4.4,4.6,6.4,7.1c0.7,0.9,0.6,2.1-0.3,2.8C171.1,48.2,170.6,48.3,170.2,48.3z
				 M39.4,42.1c-0.5,0-1-0.2-1.4-0.6c-0.8-0.8-0.8-2,0-2.8c2.2-2.3,4.6-4.4,7.1-6.4c0.9-0.7,2.1-0.6,2.8,0.3
				c0.7,0.9,0.6,2.1-0.3,2.8c-2.3,1.9-4.6,4-6.7,6.1C40.5,41.9,40,42.1,39.4,42.1z M139.5,24.4c-0.3,0-0.6-0.1-0.9-0.2
				c-8.9-4.2-18.3-6.8-28-7.8c-1.1-0.1-1.9-1.1-1.8-2.2s1.1-1.9,2.2-1.8c10.2,1,20,3.8,29.3,8.1c1,0.5,1.4,1.7,1,2.7
				C141,24,140.3,24.4,139.5,24.4z M72.2,21.2c-0.8,0-1.6-0.5-1.9-1.3c-0.4-1,0.2-2.2,1.2-2.6l0.1,0c9.7-3.5,19.7-5.2,29.9-5.3
				c1.1,0,2,0.9,2,2c0,1.1-0.9,2-2,2C91.8,16,82.2,17.7,73,21l-0.1,0C72.7,21.1,72.5,21.2,72.2,21.2z"/>
		</g>
	</g>
	<g>
		<g>
			<path fill="#FFBA00" d="M92.5,145.9l-3.8-12.3l-10.7-5.5c-1.2-0.1-4.2-0.4-6.2-2.4c-1.2-1.2-1.9-2.9-1.9-4.7v-12.3
				c-1.7-0.3-4-1.1-5.2-2.7c-0.8-1-1-2.2-0.7-3.4c0.7-3.3,5.6-9.5,7.5-11.9c-0.4-2.1-0.8-5.8,0.9-7.8c0.3-0.4,0.7-1.9,1-3.1
				c0.8-2.9,1.8-6.8,4.2-9.3c-0.5-2.6-0.3-6.5,3.5-8.4l0.7-0.3c4.1-2.1,11.1-5.6,27.4-5.4c17.8,0.3,26.3,17.4,26.6,18.1L136,75v21.2
				l-5.7,23.8l1.2,7.7l-11.9,2.5l-9.4,8.1L92.5,145.9z M79,124.1l0.5,0.2l12.6,6.5l3,9.7l13.2-5.5l9.6-8.4l9.1-2l-0.5-3.4l-12.8-6.8
				l-1.3-15.1l4-0.4l1.2,13l9.5,5l5.1-21.3V76c-1.3-2.4-9-15.3-22.9-15.5c-15.3-0.2-21.7,3-25.5,4.9l-0.7,0.4
				c-2.4,1.2-1.1,4.7-1.1,4.8l0.5,1.4l-1.2,0.9c-2,1.5-3,5.3-3.8,8c-0.6,2.1-1,3.7-1.8,4.7c-0.4,0.6-0.3,3.1,0.2,5.2l0.2,1l-0.7,0.8
				c-2.8,3.3-6.9,8.8-7.3,10.9c0,0.1,0,0.2,0,0.2c0.5,0.7,2.6,1.3,4.2,1.4l1.8,0.1l0,15.9c0,0.8,0.2,1.4,0.7,1.9
				c1.1,1,3.1,1.2,3.8,1.2L79,124.1z"/>
		</g>
		<g>
			<path fill="#FFBA00" d="M101.8,111.4c-0.8,0-2.3-0.4-2.7-3.1c-0.1-0.9-0.1-1.8-0.1-2.3l4,0v0c0,0.6,0,1,0,1.3
				c2.8-0.3,5.4-1.4,7.1-3.2c1.6-1.7,2.3-3.9,2.2-6.5c-0.1-1.8-0.6-3.1-1.3-3.5c-0.8-0.5-2.1,0-2.4,0.1l-1.8-3.6
				c0.3-0.2,3.4-1.6,6.2,0c2,1.1,3.1,3.4,3.3,6.7c0.2,3.7-0.9,7-3.2,9.5C110.4,109.7,106.2,111.4,101.8,111.4z"/>
		</g>
		<g>
			<polygon fill="#FFBA00" points="103,106 99,106 99,101 95,101 95,84.8 90.2,80.1 92.5,72.6 80,73.2 79.8,69.3 98,68.4 94.8,78.9 
				99,83.2 99,97 103,97 			"/>
		</g>
		<g>
			<path fill="#FFBA00" d="M85,93.7c-1.6,0-3.2-0.7-5.2-2l2.3-3.3c2.6,1.8,3.4,1.6,5.4,0.1l2.5,3.2C88.2,93,86.6,93.7,85,93.7z"/>
		</g>
	</g>
</g>
<g>
	<g>
		<path fill="#FC3B00" d="M278,204c-56.2,0-102-45.8-102-102S221.8,0,278,0s102,45.8,102,102S334.2,204,278,204z M278,4
			c-54,0-98,44-98,98s44,98,98,98s98-44,98-98S332,4,278,4z"/>
	</g>
	<g opacity="0.4">
		<g>
			<path fill="#FC3B00" d="M267,191.3c-0.1,0-0.2,0-0.3,0c-3.2-0.4-6.3-1-9.4-1.7c-1.1-0.3-1.7-1.3-1.5-2.4c0.3-1.1,1.3-1.7,2.4-1.5
				c2.9,0.7,6,1.2,9,1.6c1.1,0.1,1.9,1.1,1.7,2.2C268.8,190.6,268,191.3,267,191.3z M296.7,190c-0.9,0-1.7-0.6-2-1.6
				c-0.2-1.1,0.5-2.1,1.5-2.4c9.6-2.1,18.7-5.7,27-10.9c0.9-0.6,2.2-0.3,2.8,0.7c0.6,0.9,0.3,2.2-0.7,2.8
				c-8.7,5.4-18.2,9.2-28.2,11.4C297,190,296.8,190,296.7,190z M230.4,178c-0.4,0-0.7-0.1-1.1-0.3c0,0,0,0,0,0
				c-8.6-5.6-16.2-12.5-22.4-20.5c-0.7-0.9-0.5-2.1,0.4-2.8c0.9-0.7,2.1-0.5,2.8,0.4c6,7.7,13.2,14.3,21.4,19.6c0,0,0,0,0.1,0
				c0.9,0.6,1.2,1.9,0.6,2.8C231.7,177.7,231.1,178,230.4,178z M331.9,173.6c-0.6,0-1.2-0.3-1.6-0.8c-0.7-0.9-0.5-2.1,0.4-2.8
				c7.7-6,14.3-13.2,19.6-21.5c0.6-0.9,1.9-1.2,2.8-0.6c0.9,0.6,1.2,1.8,0.6,2.7c0,0,0,0.1-0.1,0.1c-5.6,8.6-12.5,16.2-20.5,22.4
				C332.8,173.4,332.4,173.6,331.9,173.6z M203.1,150.3c-0.7,0-1.3-0.3-1.7-0.9c-5.4-8.7-9.2-18.2-11.4-28.2
				c-0.2-1.1,0.5-2.1,1.5-2.4c1.1-0.2,2.1,0.5,2.4,1.5c2.1,9.6,5.7,18.7,10.9,27c0.6,0.9,0.3,2.2-0.7,2.8
				C203.9,150.2,203.5,150.3,203.1,150.3z M363.7,124.2c-0.2,0-0.3,0-0.5-0.1c-1.1-0.3-1.7-1.3-1.5-2.4c0.7-2.9,1.2-6,1.6-9
				c0.1-1.1,1.1-1.9,2.2-1.7c1.1,0.1,1.9,1.1,1.7,2.2c-0.4,3.2-1,6.3-1.7,9.4C365.4,123.5,364.6,124.2,363.7,124.2z M190.7,93
				c-0.1,0-0.2,0-0.3,0c-1.1-0.1-1.9-1.1-1.7-2.2c0.4-3.1,1-6.3,1.7-9.4c0.3-1.1,1.3-1.7,2.4-1.5c1.1,0.3,1.7,1.3,1.5,2.4
				c-0.7,3-1.2,6-1.6,9C192.5,92.2,191.7,93,190.7,93z M364,85.3c-0.9,0-1.7-0.6-2-1.6c-2.1-9.6-5.7-18.6-10.9-27
				c-0.6-0.9-0.3-2.2,0.6-2.8c0.9-0.6,2.2-0.3,2.8,0.6c5.4,8.7,9.2,18.2,11.4,28.2c0.2,1.1-0.4,2.1-1.5,2.4
				C364.3,85.2,364.1,85.3,364,85.3z M204,56.4c-0.4,0-0.7-0.1-1.1-0.3c-0.9-0.6-1.2-1.8-0.6-2.7l1.7,1.1l-1.7-1.1
				c5.6-8.7,12.5-16.2,20.5-22.5c0.9-0.7,2.1-0.5,2.8,0.4c0.7,0.9,0.5,2.1-0.4,2.8c-7.7,6-14.3,13.2-19.6,21.4
				C205.3,56.1,204.6,56.4,204,56.4z M347.5,50c-0.6,0-1.2-0.3-1.6-0.8c-6-7.7-13.2-14.3-21.4-19.6l1-1.7l1.1-1.7c0,0,0.1,0,0.1,0
				c8.6,5.5,16.1,12.4,22.4,20.5c0.7,0.9,0.5,2.1-0.4,2.8C348.4,49.9,348,50,347.5,50z M231.7,29.1c-0.7,0-1.3-0.3-1.7-0.9
				c-0.6-0.9-0.3-2.2,0.7-2.8c8.7-5.4,18.2-9.2,28.2-11.4c1.1-0.2,2.1,0.5,2.4,1.5c0.2,1.1-0.4,2.1-1.5,2.4
				c-9.6,2.1-18.7,5.7-27,10.9C232.4,29,232.1,29.1,231.7,29.1z M298.2,18.3c-0.2,0-0.3,0-0.5-0.1c-2.9-0.7-6-1.2-9-1.6
				c-1.1-0.1-1.9-1.1-1.7-2.2c0.1-1.1,1.1-1.9,2.2-1.7c3.2,0.4,6.3,1,9.4,1.7c1.1,0.3,1.7,1.3,1.5,2.4
				C299.9,17.7,299.1,18.3,298.2,18.3z"/>
		</g>
	</g>
	<g>
		<path fill="#FC3B00" d="M280,141.5c-8.1,0-14.6-2.3-19.4-6.8c-4.7-4.4-7.1-10.3-7.4-18.7H249c-3.5,0-6-2.4-6-5.9
			c0-3.6,2.5-6.1,6-6.1h4v-5h-4c-3.5,0-6-2.4-6-5.9c0-3.6,2.5-6.1,6-6.1h4v-0.2c0-9.4,2.5-16.6,7.6-21.3c4.9-4.6,11.4-6.9,19.5-6.9
			c8,0,14.5,2.2,19.4,6.5c5,4.5,7.6,10.1,7.6,16.8c0,3.8-2.5,6.3-6.1,6.3c-3.6,0-6.1-2.5-6.1-6.1c0-3.7-1.2-6.3-3.7-8.2
			c-2.8-2.1-6.5-3.1-11.1-3.1c-5,0-8.6,1.2-11.1,3.8c-2.5,2.6-3.9,6.8-3.9,12.2V87h20.3c1.7,0,3.2,0.6,4.3,1.7
			c1.2,1.2,1.8,2.6,1.8,4.2c0,1.7-0.7,3.3-2,4.4c-1.2,1.1-2.7,1.7-4.2,1.7H265v5h20.3c1.8,0,3.2,0.5,4.3,1.6
			c1.2,1.2,1.8,2.5,1.8,4.1c0,1.7-0.7,3.3-2,4.5c-1.3,1.2-2.7,1.9-4.2,1.9h-19.9c0.3,4.4,1.4,7.3,3.6,9.6c2.3,2.4,5.8,3.5,11,3.5
			c4.6,0,8.3-1.1,11.1-3.1c2.5-1.9,3.7-4.5,3.7-8.2c0-3.6,2.5-6.1,6.1-6.1c3.6,0,6.1,2.6,6.1,6.4c0,6.7-2.5,12.4-7.6,16.9
			C294.5,139.2,288,141.5,280,141.5z M249,107c-1.9,0-3,1.1-3,3.1c0,1.8,1.1,2.9,3,2.9h7.2l0,1.5c0.1,8.3,2.2,14,6.5,18
			c4.2,4,10.1,6,17.3,6c7.2,0,13.1-2,17.4-5.8c4.3-3.9,6.6-8.8,6.6-14.6c0-2.1-1.2-3.4-3.1-3.4c-1.9,0-3.1,1.2-3.1,3.1
			c0,4.7-1.6,8.2-4.9,10.6c-3.3,2.5-7.7,3.7-12.9,3.7c-6,0-10.2-1.4-13.1-4.5c-3-3.1-4.4-7.1-4.5-13.1l0-1.5h22.9
			c0.8,0,1.6-0.6,2.1-1.1c0.6-0.6,1-1.4,1-2.3c0-0.7-0.3-1.3-0.9-2c-0.5-0.5-1.2-0.7-2.2-0.7H262V96h23.3c0.9,0,1.7-0.5,2.1-1
			c0.6-0.6,1-1.4,1-2.2c0-0.8-0.3-1.4-0.9-2c-0.5-0.5-1.2-0.8-2.2-0.8H262v-3.2c0-6.1,1.6-11.1,4.7-14.3c3-3.1,7.4-4.7,13.2-4.7
			c5.3,0,9.6,1.3,12.9,3.7c3.3,2.4,4.9,6,4.9,10.6c0,1.9,1.2,3.1,3.1,3.1c2,0,3.1-1.2,3.1-3.3c0-5.8-2.2-10.7-6.5-14.6
			c-4.3-3.8-10.2-5.8-17.4-5.8c-7.2,0-13.1,2-17.4,6.1c-4.4,4.1-6.6,10.5-6.6,19.1V90h-7c-1.9,0-3,1.1-3,3.1c0,1.8,1.1,2.9,3,2.9h7
			v11H249z"/>
	</g>
</g>
</svg>
