<?xml version="1.0" encoding="utf-8"?>
<!-- Generator: Adobe Illustrator 18.1.1, SVG Export Plug-In . SVG Version: 6.00 Build 0)  -->
<!DOCTYPE svg PUBLIC "-//W3C//DTD SVG 1.1//EN" "http://www.w3.org/Graphics/SVG/1.1/DTD/svg11.dtd">
<svg version="1.1" id="Coin-1" xmlns="http://www.w3.org/2000/svg" xmlns:xlink="http://www.w3.org/1999/xlink" x="0px" y="0px"
	 viewBox="0 0 380 204" enable-background="new 0 0 380 204" xml:space="preserve">
<g>
	<g>
		<path fill="#FFBA00" d="M102,204C45.8,204,0,158.2,0,102S45.8,0,102,0s102,45.8,102,102S158.2,204,102,204z M102,4
			C48,4,4,48,4,102c0,54,44,98,98,98c54,0,98-44,98-98C200,48,156,4,102,4z"/>
	</g>
	<g opacity="0.4">
		<g>
			<path fill="#FFBA00" d="M102,192L102,192c-10.3,0-20.4-1.7-30-5.1c-1-0.4-1.6-1.5-1.2-2.6c0.4-1,1.5-1.6,2.6-1.2
				c9.2,3.2,18.8,4.9,28.6,4.9c1.1,0,2,0.9,2,2S103.1,192,102,192z M131.4,187c-0.8,0-1.6-0.5-1.9-1.3c-0.4-1,0.2-2.2,1.2-2.6
				c2.9-1,5.7-2.2,8.4-3.5c1-0.5,2.2-0.1,2.7,0.9s0.1,2.2-0.9,2.7c-2.9,1.4-5.8,2.6-8.8,3.7C131.8,186.9,131.6,187,131.4,187z
				 M64.1,183.4c-0.3,0-0.6-0.1-0.9-0.2c-9.2-4.4-17.6-10.3-24.8-17.6c-0.8-0.8-0.8-2,0-2.8c0.8-0.8,2-0.8,2.8,0
				c6.9,6.9,14.9,12.6,23.7,16.8c1,0.5,1.4,1.7,0.9,2.7C65.6,183,64.8,183.4,64.1,183.4z M164.2,166.2c-0.5,0-1-0.2-1.4-0.6
				c-0.8-0.8-0.8-2,0-2.8c6.9-6.9,12.6-14.9,16.8-23.7c0.5-1,1.7-1.4,2.7-0.9c1,0.5,1.4,1.7,0.9,2.7c-4.4,9.2-10.3,17.6-17.6,24.8
				C165.3,166,164.7,166.2,164.2,166.2z M22.6,142c-0.7,0-1.5-0.4-1.8-1.1c-1.4-2.9-2.6-5.8-3.7-8.8c-0.4-1,0.2-2.2,1.2-2.6
				c1-0.4,2.2,0.2,2.6,1.2c1,2.9,2.2,5.7,3.5,8.4c0.5,1,0.1,2.2-0.9,2.7C23.2,142,22.9,142,22.6,142z M185,133.3
				c-0.2,0-0.4,0-0.7-0.1c-1-0.4-1.6-1.5-1.2-2.6c3.2-9.2,4.9-18.8,4.9-28.7v-0.2c0-1.1,0.9-2,2-2s2,0.9,2,2v0.2
				c0,10.3-1.7,20.4-5.1,30C186.6,132.8,185.8,133.3,185,133.3z M14,104c-1.1,0-2-0.9-2-2V102c0-10.3,1.7-20.3,5.1-29.9
				c0.4-1,1.5-1.6,2.6-1.2c1,0.4,1.6,1.5,1.2,2.6C17.6,82.6,16,92.2,16,102C16,103.1,15.1,104,14,104z M184.9,74.5
				c-0.8,0-1.6-0.5-1.9-1.3c-1-2.9-2.2-5.7-3.5-8.4c-0.5-1-0.1-2.2,0.9-2.7c1-0.5,2.2-0.1,2.7,0.9c1.4,2.9,2.6,5.8,3.7,8.8
				c0.4,1-0.2,2.2-1.2,2.6C185.4,74.5,185.2,74.5,184.9,74.5z M22.5,66.1c-0.3,0-0.6-0.1-0.9-0.2c-1-0.5-1.4-1.7-0.9-2.7
				c4.4-9.2,10.3-17.6,17.6-24.8c0.8-0.8,2-0.8,2.8,0c0.8,0.8,0.8,2,0,2.8C34.2,48.2,28.6,56.2,24.3,65C24,65.7,23.3,66.1,22.5,66.1
				z M164.1,41.7c-0.5,0-1-0.2-1.4-0.6c-6.9-6.9-14.9-12.6-23.7-16.8c-1-0.5-1.4-1.7-0.9-2.7c0.5-1,1.7-1.4,2.7-0.9
				c9.2,4.4,17.6,10.3,24.8,17.5c0.8,0.8,0.8,2,0,2.8C165.1,41.5,164.6,41.7,164.1,41.7z M63.9,24.6c-0.7,0-1.5-0.4-1.8-1.1
				c-0.5-1-0.1-2.2,0.9-2.7c2.9-1.4,5.8-2.6,8.8-3.7c1-0.4,2.2,0.2,2.6,1.2c0.4,1-0.2,2.2-1.2,2.6c-2.9,1-5.7,2.2-8.4,3.5
				C64.5,24.6,64.2,24.6,63.9,24.6z M131.2,21c-0.2,0-0.4,0-0.7-0.1c-9.1-3.2-18.7-4.8-28.5-4.8h-0.1c-1.1,0-2-0.9-2-2s0.9-2,2-2
				h0.1c10.2,0,20.3,1.7,29.9,5.1c1,0.4,1.6,1.5,1.2,2.6C132.8,20.4,132,21,131.2,21z"/>
		</g>
	</g>
	<g>
		<g>
			<path fill="#FFBA00" d="M117.7,153.6l-32.9-8.3l-4.6-11.1l9.6-14.3l-0.4-6.3c-0.8-0.2-2.2-0.4-4.4-0.3c-4.7,0.1-8.4-1.8-10.3-5.3
				c-1.9-3.4-1-7.6-0.5-9.5c-1.9-2.1-3.9-6.2-1.8-10.7l3.2,1.5c-2,4.1,1.6,7.3,1.8,7.4l0.9,0.8l-0.5,1.2c0,0-1.8,4.6-0.1,7.7
				c1.3,2.4,3.7,3.6,7.2,3.5c4.8-0.1,6.6,0.8,7,1l0.8,0.5l0.5,9.6l-9.2,13.7l3.2,7.7l30,7.6l6.9-3.2l-6.3-24.7l1-0.7
				c1.8-1.2,10.7-7.2,13.9-7.8c0.7-0.1,1-0.5,1.1-0.7c0.4-0.8,0.2-2.3-0.6-3.8l-0.7-1.4l1.3-0.8c0.3-0.2,0.8-0.6,0.9-0.8
				c-0.1-0.3-0.3-0.8-0.4-0.9l-0.7-1.1l0.8-1c0.2-0.2,0.3-0.6,0.3-0.8c0-0.2-0.3-0.8-0.4-1.2c-0.3-0.7-0.5-1.3-0.5-1.9v-1.4l3.3-2.7
				l0.3-1.1c-2.5-2.4-6.1-5.8-6.5-6.3l-0.2-0.3l-0.1-0.3c-0.2-0.6-0.4-1.5-0.6-1.8c-0.2-0.5-0.2-1-0.2-1.6c0-0.9,0-2.2-0.4-4.2
				c-0.7-3.2-1.2-4.9-1.8-5.8c-0.6-0.9-1.8-1.8-1.8-1.8l-0.6-0.5l0-0.8c-0.2-4.2-1.7-7.4-4.6-9.8l2.2-2.7c3.4,2.9,5.4,6.7,5.8,11.5
				c0.5,0.5,1.3,1.2,1.9,2c0.9,1.3,1.6,3.3,2.4,7.1c0.5,2.4,0.5,4,0.5,4.9c0,0.2,0,0.3,0,0.5c0.2,0.4,0.4,1.1,0.5,1.5
				c0.8,0.9,3.9,3.8,6.7,6.5l0.7,0.7l-1,4.2l-2.9,2.3c0.1,0.1,0.1,0.3,0.2,0.4c0.3,0.8,0.7,1.6,0.7,2.5c0,0.7-0.2,1.4-0.5,1.9
				c0.2,0.5,0.5,1.2,0.5,2c0,1.1-0.7,2-1.4,2.7c0.7,2.1,0.8,4,0,5.5c-0.5,0.9-1.5,2.2-3.5,2.6c-1.8,0.4-7.7,4-11.6,6.6l6.4,25.1
				L117.7,153.6z"/>
		</g>
		<g>
			<path fill="none" stroke="#FFBA00" stroke-width="4" stroke-miterlimit="10" d="M121.9,59.5"/>
		</g>
		<g>
			<path fill="#FFBA00" d="M73.3,90.9L62.5,68.2l8.7,4.4l-1-9.8l7.4,4.8l-1.5-9.7l9.8,5.8l-1.7-10.6l9.9,6.2L94,48.9l8.2,6.1
				l1.2-8.8l7,5.2l0.7-10.1L124.4,60L73.3,90.9z M70.1,76l4.7,9.9L119.4,59l-5.5-7.7l-0.5,6.7l-7.3-5.4l-1.2,8.8l-7.3-5.4l0.2,9.9
				l-8.8-5.6l1.6,10.3l-9.9-5.8l1.5,10.1l-7.7-5l1,8.9L70.1,76z"/>
		</g>
		<g>
			<path fill="#FFBA00" d="M121.8,89.6c-1.7,0-3.4-0.7-5.5-2.1l2-2.9c3.1,2.1,4.2,1.9,6.5,0.1l2.2,2.8
				C125.1,88.9,123.5,89.6,121.8,89.6z"/>
		</g>
		<g>
			<path fill="#FFBA00" d="M94.5,101.5c-0.8-5.6,1.6-8.1,4.3-9.1c-0.3-3.1,1.5-5.5,5.4-7.2c0.2-1.7,0.9-3.2,1.9-4.2
				c1.3-1.3,3-1.9,5.1-1.9v3.5c-0.8,0-1.9,0.2-2.6,0.9c-0.7,0.7-1,1.7-1,3l0,1.2l-1.2,0.4c-4.6,1.6-4.4,3.5-4,5l0.5,1.8l-1.9,0.4
				c-2,0.4-3.8,1.4-3.2,5.7L94.5,101.5z"/>
		</g>
		<g>
			<path fill="#FFBA00" d="M83.7,100.2c-1.3-3.6-0.3-6.6,2.8-8.6c-0.3-4,1.5-6.4,5.3-7.3l0.7,3.4c-2,0.4-3,1.3-2.5,4.5l0.2,1.3
				l-1.2,0.6c-2.4,1.1-3,2.6-2.2,4.9L83.7,100.2z"/>
		</g>
	</g>
</g>
<g>
	<g>
		<path fill="#FC3B00" d="M278,204c-56.2,0-102-45.8-102-102S221.8,0,278,0s102,45.8,102,102S334.2,204,278,204z M278,4
			c-54,0-98,44-98,98c0,54,44,98,98,98s98-44,98-98C376,48,332,4,278,4z"/>
	</g>
	<g opacity="0.4">
		<g>
			<path fill="#FC3B00" d="M278,192c-1.1,0-2-0.9-2-2s0.9-2,2-2c9.8,0,19.4-1.7,28.7-4.9c1-0.4,2.2,0.2,2.6,1.2
				c0.4,1-0.2,2.2-1.2,2.6C298.4,190.3,288.3,192,278,192L278,192z M248.7,187c-0.2,0-0.4,0-0.7-0.1c-3-1.1-6-2.3-8.8-3.6
				c-1-0.5-1.4-1.7-0.9-2.7c0.5-1,1.7-1.4,2.7-0.9c2.7,1.3,5.6,2.5,8.4,3.5c1,0.4,1.6,1.5,1.2,2.6C250.3,186.5,249.5,187,248.7,187z
				 M316,183.4c-0.7,0-1.5-0.4-1.8-1.1c-0.5-1-0.1-2.2,0.9-2.7c8.8-4.2,16.8-9.8,23.7-16.8c0.8-0.8,2.1-0.8,2.8,0
				c0.8,0.8,0.8,2,0,2.8l0,0c-7.3,7.3-15.6,13.2-24.8,17.6C316.6,183.3,316.3,183.4,316,183.4z M215.8,166.2c-0.5,0-1-0.2-1.4-0.6
				l0,0c-7.3-7.3-13.2-15.6-17.6-24.8c-0.5-1-0.1-2.2,0.9-2.7c1-0.5,2.2-0.1,2.7,0.9c4.2,8.8,9.8,16.7,16.8,23.7
				c0.8,0.8,0.8,2.1,0,2.8C216.8,166.1,216.3,166.2,215.8,166.2z M357.4,141.9c-0.3,0-0.6-0.1-0.9-0.2c-1-0.5-1.4-1.7-0.9-2.7
				c1.3-2.7,2.5-5.6,3.5-8.4c0.4-1,1.5-1.6,2.6-1.2c1,0.4,1.6,1.5,1.2,2.6c-1.1,3-2.3,6-3.6,8.8
				C358.9,141.5,358.2,141.9,357.4,141.9z M195,133.4c-0.8,0-1.6-0.5-1.9-1.3c-3.4-9.6-5.1-19.7-5.1-30c0-1.1,0.9-2,2-2h0
				c1.1,0,2,0.9,2,2c0,9.8,1.7,19.4,4.9,28.7c0.4,1-0.2,2.2-1.2,2.6C195.5,133.3,195.2,133.4,195,133.4z M366,104c-1.1,0-2-0.9-2-2
				c0-9.8-1.6-19.4-4.9-28.7c-0.4-1,0.2-2.2,1.2-2.6c1-0.4,2.2,0.2,2.6,1.2c3.4,9.6,5.1,19.7,5.1,30C368,103.1,367.1,104,366,104z
				 M195,74.7c-0.2,0-0.4,0-0.7-0.1c-1-0.4-1.6-1.5-1.2-2.6c1.1-3,2.3-6,3.6-8.8c0.5-1,1.7-1.4,2.7-0.9c1,0.5,1.4,1.7,0.9,2.7
				c-1.3,2.7-2.5,5.6-3.5,8.4C196.6,74.2,195.8,74.7,195,74.7z M357.4,66c-0.7,0-1.5-0.4-1.8-1.1c-4.2-8.8-9.9-16.8-16.8-23.7
				c-0.8-0.8-0.8-2.1,0-2.9c0.8-0.8,2-0.8,2.8,0l-1.4,1.4l1.4-1.4c7.3,7.3,13.2,15.7,17.6,24.9c0.5,1,0.1,2.2-0.9,2.7
				C358,66,357.7,66,357.4,66z M217.2,41.2l-1.5-1.4l-1.4-1.4c7.3-7.3,15.6-13.2,24.8-17.6c1-0.5,2.2-0.1,2.7,0.9
				c0.5,1,0.1,2.2-0.9,2.7C232.1,28.6,224.1,34.3,217.2,41.2z M315.9,24.5c-0.3,0-0.6-0.1-0.9-0.2c-2.7-1.3-5.6-2.5-8.4-3.5
				c-1-0.4-1.6-1.5-1.2-2.5s1.5-1.6,2.5-1.2c3,1.1,6,2.3,8.8,3.6c1,0.5,1.4,1.7,0.9,2.7C317.3,24.1,316.6,24.5,315.9,24.5z
				 M248.6,21c-0.8,0-1.6-0.5-1.9-1.3c-0.4-1,0.2-2.2,1.2-2.6c9.6-3.4,19.7-5.1,30-5.1c0,0,0,0,0,0c1.1,0,2,0.9,2,2c0,1.1-0.9,2-2,2
				c-9.8,0-19.4,1.7-28.7,4.9C249.1,21,248.8,21,248.6,21z"/>
		</g>
	</g>
	<g>
		<g>
			<g>
				<g>
					<path fill="#FC3B00" d="M303.3,53.7c-1-2.4-2.6-4.1-4.8-5c-5.1-2.1-14,2-15,2.5l1.7,3.6c3.1-1.5,9.1-3.5,11.8-2.4
						c1.5,0.6,2.2,1.9,2.6,2.8c0.9,2.3,0.8,5.2-0.2,7.8c-1.6,3.7-2.8,8.5-3.4,11h-10h-2h-23.6c-0.6-2.4-1.9-7.3-3.5-11
						c-1.1-2.6-1.2-5.6-0.3-7.9c0.6-1.3,1.4-2.3,2.6-2.7c2.6-1.1,8.4,0.9,11.5,2.4l1.8-3.6c-1-0.5-9.6-4.6-14.8-2.5
						c-2.1,0.9-3.8,2.6-4.7,4.9c-1.3,3.2-1.2,7.4,0.3,11c2,4.8,3.6,11.8,3.6,11.9l0.4,1.6H284h2h13.2l0.3-1.6
						c0-0.1,1.5-7.1,3.5-11.8C304.5,61,304.6,57,303.3,53.7z"/>
				</g>
				<g>
					<rect x="276" y="43" fill="#FC3B00" width="4" height="33"/>
				</g>
			</g>
		</g>
		<g>
			<path fill="#FC3B00" d="M277.5,155.8l-0.8-0.4c-1.8-0.9-18-8.5-22.4-14c-5.4-6.6-8.3-15.2-8.3-24.2V84.6h63.1v32.5
				c0,9-2.9,17.6-8.3,24.2c-4.4,5.5-20.5,13.1-22.4,14L277.5,155.8z M250,88.6v28.5c0,8.1,2.6,15.8,7.4,21.7
				c3.1,3.8,14.8,9.9,20.1,12.5c5.3-2.5,17-8.7,20.1-12.5c4.8-5.9,7.4-13.6,7.4-21.7V88.6H250z"/>
		</g>
		<g>
			<g>
				<path fill="#FC3B00" d="M274,142.9l-2.9-1.6c-1.5-0.8-9.3-5-11.4-7.6c-2.6-3.2-4-7.3-4-11.7v-2.5H274V142.9z M259.8,123.6
					c0.3,2.9,1.3,5.5,3,7.7c0.9,1.1,4.1,3.2,7.2,4.9v-12.6H259.8z"/>
			</g>
		</g>
		<g>
			<path fill="#FC3B00" d="M300.5,114.4h-21V93.9h21V114.4z M283.4,110.4h13V97.9h-13V110.4z"/>
		</g>
		<g>
			<rect x="255" y="94" fill="#FC3B00" width="19" height="4"/>
		</g>
		<g>
			<rect x="255" y="102" fill="#FC3B00" width="19" height="4"/>
		</g>
		<g>
			<rect x="255" y="110" fill="#FC3B00" width="19" height="4"/>
		</g>
		<g>
			<rect x="279" y="120" fill="#FC3B00" width="19" height="4"/>
		</g>
		<g>
			<rect x="279" y="128" fill="#FC3B00" width="17" height="4"/>
		</g>
		<g>
			<rect x="279" y="136" fill="#FC3B00" width="11" height="4"/>
		</g>
	</g>
</g>
</svg>
