<?xml version="1.0" encoding="utf-8"?>
<!-- Generator: Adobe Illustrator 18.1.1, SVG Export Plug-In . SVG Version: 6.00 Build 0)  -->
<!DOCTYPE svg PUBLIC "-//W3C//DTD SVG 1.1//EN" "http://www.w3.org/Graphics/SVG/1.1/DTD/svg11.dtd">
<svg version="1.1" id="Coin-1" xmlns="http://www.w3.org/2000/svg" xmlns:xlink="http://www.w3.org/1999/xlink" x="0px" y="0px"
	 viewBox="0 0 380 204" enable-background="new 0 0 380 204" xml:space="preserve">
<g>
	<g>
		<path fill="#FFBA00" d="M102,204C45.8,204,0,158.2,0,102S45.8,0,102,0s102,45.8,102,102S158.2,204,102,204z M102,4
			C48,4,4,48,4,102c0,54,44,98,98,98s98-44,98-98C200,48,156,4,102,4z"/>
	</g>
	<g opacity="0.4">
		<g>
			<path fill="#FFBA00" d="M101,192C100.9,192,100.9,192,101,192c-3.2,0-6.4-0.2-9.6-0.6c-1.1-0.1-1.9-1.1-1.8-2.2
				c0.1-1.1,1.1-1.9,2.2-1.7c3,0.4,6.1,0.6,9.1,0.6c1.1,0,2,0.9,2,2C102.9,191.1,102.1,192,101,192z M130.3,187.3
				c-0.8,0-1.6-0.5-1.9-1.4c-0.4-1,0.2-2.2,1.2-2.5c9.3-3.2,17.9-7.8,25.6-13.9c0.9-0.7,2.1-0.5,2.8,0.3c0.7,0.9,0.5,2.1-0.3,2.8
				c-8,6.3-17,11.2-26.7,14.5C130.8,187.3,130.5,187.3,130.3,187.3z M63.1,182.9c-0.3,0-0.6-0.1-0.9-0.2c0,0,0,0,0,0
				c-9.2-4.5-17.5-10.5-24.6-17.8c-0.8-0.8-0.8-2.1,0-2.8c0.8-0.8,2.1-0.8,2.8,0c6.8,7,14.7,12.7,23.5,17c0,0,0.1,0,0.1,0.1
				c1,0.5,1.3,1.7,0.8,2.7C64.5,182.6,63.8,182.9,63.1,182.9z M163.5,167c-0.5,0-1-0.2-1.4-0.6c-0.8-0.8-0.8-2.1,0-2.8
				c7-6.8,12.7-14.7,17-23.5c0.5-1,1.7-1.4,2.7-0.9c1,0.5,1.4,1.6,0.9,2.6c0,0-0.1,0.1-0.1,0.2c-4.5,9.2-10.5,17.4-17.8,24.6
				C164.5,166.8,164,167,163.5,167z M32.9,158.5c-0.6,0-1.2-0.3-1.6-0.8c-6.3-8-11.2-17-14.5-26.7c-0.4-1,0.2-2.2,1.2-2.5
				c1-0.4,2.2,0.2,2.5,1.2c3.2,9.3,7.8,17.9,13.9,25.6c0.7,0.9,0.5,2.1-0.3,2.8C33.7,158.4,33.3,158.5,32.9,158.5z M189.4,114.3
				c-0.1,0-0.2,0-0.2,0c-1.1-0.1-1.9-1.1-1.8-2.2c0.4-3,0.6-6.1,0.6-9.1c0-1.1,0.9-2,2-2c0,0,0,0,0,0c1.1,0,2,0.9,2,2
				c0,3.2-0.2,6.4-0.6,9.5C191.3,113.6,190.4,114.3,189.4,114.3z M14,103C14,103,14,103,14,103c-1.1,0-2-0.9-2-2
				c0-3.2,0.2-6.4,0.6-9.5c0.1-1.1,1.1-1.9,2.2-1.8c1.1,0.1,1.9,1.1,1.8,2.2c-0.4,3-0.6,6.1-0.6,9.1C16,102.1,15.1,103,14,103z
				 M185.3,75.6c-0.8,0-1.6-0.5-1.9-1.4c-3.2-9.3-7.8-17.9-13.9-25.5c-0.7-0.9-0.5-2.1,0.3-2.8c0.9-0.7,2.1-0.5,2.8,0.3
				c6.3,8,11.2,17,14.5,26.7c0.4,1-0.2,2.2-1.2,2.5C185.7,75.6,185.5,75.6,185.3,75.6z M23,65.1c-0.3,0-0.6-0.1-0.9-0.2
				c-1-0.5-1.4-1.7-0.9-2.6c0,0,0-0.1,0-0.1c4.5-9.2,10.5-17.5,17.8-24.6c0.8-0.8,2.1-0.8,2.8,0c0.8,0.8,0.8,2.1,0,2.8
				c-7,6.8-12.7,14.7-17,23.5C24.5,64.7,23.8,65.1,23,65.1z M164.9,42.5c-0.5,0-1-0.2-1.4-0.6c-6.8-7-14.7-12.7-23.5-17
				c-1-0.5-1.4-1.7-0.9-2.7c0.5-1,1.7-1.4,2.6-0.9c0,0,0.1,0,0.1,0.1c9.2,4.5,17.4,10.5,24.5,17.8c0.8,0.8,0.8,2.1,0,2.8
				C166,42.3,165.4,42.5,164.9,42.5z M47.5,34.9c-0.6,0-1.2-0.3-1.6-0.8c-0.7-0.9-0.5-2.1,0.3-2.8c8-6.3,17-11.2,26.7-14.5
				c1-0.4,2.2,0.2,2.5,1.2c0.4,1-0.2,2.2-1.2,2.5c-9.3,3.2-17.9,7.8-25.5,13.9C48.4,34.7,47.9,34.9,47.5,34.9z M112.3,16.6
				c-0.1,0-0.2,0-0.2,0c-3-0.4-6.1-0.6-9.1-0.6c-1.1,0-2-0.9-2-2s0.9-2,2-2c3.2,0,6.4,0.2,9.5,0.6c1.1,0.1,1.9,1.1,1.8,2.2
				C114.2,15.8,113.3,16.6,112.3,16.6z"/>
		</g>
	</g>
	<g>
		<path fill="#FFBA00" d="M117.1,98.1l-18-1.3l-1-19.7l-4.6-6.5l3.2-6.6l4.2-3.3V58H79.6l2.1-3.1c0.3-0.5,8.5-12.2,30.9-7.8
			c6.7,1.3,14.5,9.2,14.9,9.5c0.4,0.5,9.1,10.3,6,30.3l-4-0.6c2.8-18.1-4.8-26.9-4.9-26.9c-2-2-8.2-7.4-12.7-8.3
			c-12.2-2.4-19.6,0.4-23.4,3H105v8.6l-5,3.9l-1.8,3.6l3.9,5.5L103,93l14.5,1.1L117.1,98.1z"/>
	</g>
	<g>
		<path fill="#FFBA00" d="M71.7,112.9c-3.4-0.3-5.5-1.3-6.5-2.9c-0.7-1.2-0.6-2.4-0.2-3.2c0.5-1.1,0.5-4,0.4-5.7l0-0.4l0.6-1.9v-1.7
			l0.7-2.8c-1,0.1-2-0.1-3-0.8c-1.3-0.9-2.5-2.5-2.5-4.3c0-1.2,1-3.1,5.9-10.9c1.3-2.1,2.9-4.7,3.2-5.3c0.4-1.5,2-6.1,3.5-8.6
			c1.5-2.5,7.4-9.1,8-9.9l3,2.6c-1.7,2-6.5,7.5-7.6,9.4c-1.4,2.2-2.8,6.5-3.1,7.6c-0.2,0.7-0.9,1.9-3.7,6.4
			c-1.8,2.9-4.7,7.5-5.3,8.9c0.1,0.3,0.6,0.9,1,1c1.6-0.6,2.8-0.9,2.8-0.9l3.2-0.8l-2.2,9v1.9l-0.6,1.8c0.1,1.2,0.1,4.6-0.7,6.8
			c0.3,0.2,1.1,0.7,3.3,0.9L71.7,112.9z"/>
	</g>
	<g>
		<path fill="#FFBA00" d="M93.2,149.8l-20-6.4l9.6-13.3l-1.9-12.7l-1.4-0.9c-7.3-2.6-9.4-4.2-9.7-4.5l2.5-3.1c0,0,1.9,1.4,8.8,3.9
			l0.4,0.2l3.2,2l2.4,16.2l-7.3,10.2l13.7,4.4l32.5-8.6l1,3.9L93.2,149.8z"/>
	</g>
	<g>
		<path fill="#FFBA00" d="M84,80.2c-1.6,0-3.2-0.7-5.2-2l2.3-3.3c2.6,1.8,3.4,1.6,5.4,0.1l2.5,3.2C87.2,79.5,85.6,80.2,84,80.2z"/>
	</g>
	<g>
		<path fill="none" stroke="#FFBA00" stroke-width="4" stroke-miterlimit="10" d="M115.8,59.5"/>
	</g>
	<g>
		<path fill="#FFBA00" d="M128.5,107.1c-0.3,0-0.5,0-0.8,0l-0.4,0c-4.9-0.5-11.1-1-13.8-11.9l3.9-1c2.1,8.1,5.7,8.5,10.3,8.9l0.4,0
			c1.8,0.2,3.2-0.7,4.1-1.5c1.7-1.5,2.8-4,2.8-6.3c0-3.9-3.2-7-7-7c-1.4,0-2.8,0.4-3.9,1.2l-2.2-3.3c1.8-1.2,4-1.9,6.2-1.9
			c6.1,0,11,4.9,11,11c0,3.4-1.6,6.9-4.1,9.2C132.9,106.2,130.7,107.1,128.5,107.1z"/>
	</g>
	<g>
		<polygon fill="#FFBA00" points="124.6,140.9 119.5,121.2 120.4,104.8 124.4,105 123.5,120.8 128.4,139.9 		"/>
	</g>
	<g>
		<path fill="#FFBA00" d="M127.6,123l0.6-17.8l3.6,0.1l1.4-0.7l8.1,14.7L127.6,123z M132,110.9l-0.2,6.9l3.5-0.9L132,110.9z"/>
	</g>
	<g>
		<path fill="#FFBA00" d="M116.6,78.2c-0.2-7.4-4.5-9.5-4.7-9.6l1.7-3.6c0.3,0.1,6.9,3.2,7.1,13.2L116.6,78.2z"/>
	</g>
</g>
<g>
	<g>
		<path fill="#FC3B00" d="M278,204c-56.2,0-102-45.8-102-102S221.8,0,278,0s102,45.8,102,102S334.2,204,278,204z M278,4
			c-54,0-98,44-98,98s44,98,98,98s98-44,98-98S332,4,278,4z"/>
	</g>
	<g opacity="0.4">
		<g>
			<path fill="#FC3B00" d="M279,192c-1.1,0-2-0.9-2-2c0-1.1,0.9-2,2-2c9.7-0.1,19.4-1.9,28.6-5.3l0.1-0.1c1-0.4,2.2,0.2,2.6,1.2
				c0.4,1-0.2,2.2-1.2,2.6l-0.1,0C299.3,190,289.2,192,279,192C279,192,279,192,279,192z M269.7,191.6c-0.1,0-0.1,0-0.2,0
				c-10.2-1-20-3.7-29.4-8c-1-0.5-1.4-1.7-1-2.7c0.5-1,1.7-1.4,2.7-1c8.9,4.1,18.3,6.7,28.1,7.6c1.1,0.1,1.9,1.1,1.8,2.2
				C271.6,190.9,270.7,191.6,269.7,191.6z M334.2,171.8c-0.6,0-1.1-0.2-1.5-0.7c-0.7-0.9-0.6-2.1,0.3-2.8c2.3-1.9,4.6-4,6.7-6.2
				c0.8-0.8,2-0.8,2.8,0c0.8,0.8,0.8,2,0,2.8c-2.2,2.3-4.6,4.5-7,6.5C335.1,171.6,334.6,171.8,334.2,171.8z M216.5,167
				c-0.5,0-1-0.2-1.4-0.6c-2.3-2.2-4.4-4.6-6.5-7c-0.7-0.9-0.6-2.1,0.3-2.8c0.9-0.7,2.1-0.6,2.8,0.3c1.9,2.3,4,4.6,6.2,6.7
				c0.8,0.8,0.8,2,0,2.8C217.5,166.8,217,167,216.5,167z M357.9,140.9c-0.3,0-0.6-0.1-0.8-0.2c-1-0.5-1.4-1.7-1-2.7
				c4.1-8.9,6.7-18.3,7.6-28.1c0.1-1.1,1.1-1.9,2.2-1.8c1.1,0.1,1.9,1.1,1.8,2.2c-1,10.2-3.6,20.1-7.9,29.4
				C359.4,140.5,358.6,140.9,357.9,140.9z M195.4,134.3c-0.8,0-1.6-0.5-1.9-1.3c0,0,0,0,0,0c-3.5-9.6-5.4-19.7-5.5-29.9
				c0-1.1,0.9-2,2-2c0,0,0,0,0,0c1.1,0,2,0.9,2,2c0.1,9.7,1.9,19.3,5.3,28.6c0,0,0,0.1,0,0.1c0.3,1-0.2,2.2-1.3,2.5
				C195.8,134.3,195.6,134.3,195.4,134.3z M366,103c-1.1,0-2-0.9-2-2c-0.1-9.7-1.9-19.3-5.3-28.5c-0.4-1,0.1-2.2,1.2-2.6
				c1-0.4,2.2,0.1,2.5,1.1l0.1,0.1c3.5,9.6,5.4,19.7,5.5,29.8C368,102,367.1,103,366,103C366,103,366,103,366,103z M190.4,95.7
				c-0.1,0-0.1,0-0.2,0c-1.1-0.1-1.9-1.1-1.8-2.2c1-10.2,3.6-20,8-29.4c0.5-1,1.7-1.4,2.7-1c1,0.5,1.4,1.7,1,2.7
				c-4.1,8.9-6.7,18.3-7.6,28.1C192.3,94.9,191.4,95.7,190.4,95.7z M345.8,47.9c-0.6,0-1.1-0.2-1.5-0.7c-1.9-2.3-4-4.6-6.2-6.7
				c-0.8-0.8-0.8-2,0-2.8s2-0.8,2.8,0c2.3,2.2,4.4,4.6,6.5,7c0.7,0.9,0.6,2.1-0.3,2.8C346.7,47.7,346.2,47.9,345.8,47.9z M215,42.5
				c-0.5,0-1-0.2-1.4-0.6c-0.8-0.8-0.8-2,0-2.8c2.2-2.3,4.6-4.4,7-6.5c0.9-0.7,2.1-0.6,2.8,0.3s0.6,2.1-0.3,2.8
				c-2.3,1.9-4.6,4-6.7,6.2C216.1,42.3,215.5,42.5,215,42.5z M315,24.1c-0.3,0-0.6-0.1-0.8-0.2c-8.9-4.1-18.3-6.7-28.1-7.6
				c-1.1-0.1-1.9-1.1-1.8-2.2s1.1-1.9,2.2-1.8c10.2,1,20.1,3.6,29.4,7.9c1,0.5,1.4,1.7,1,2.7C316.4,23.7,315.7,24.1,315,24.1z
				 M247.6,21.4c-0.8,0-1.5-0.5-1.8-1.3c-0.4-1,0.1-2.2,1.2-2.6c0,0,0.1,0,0.1,0l0,0c9.6-3.5,19.7-5.4,29.8-5.5c1.1,0,2,0.9,2,2
				s-0.9,2-2,2c-9.7,0.1-19.3,1.9-28.5,5.3c0,0-0.1,0-0.1,0C248.1,21.4,247.8,21.4,247.6,21.4z"/>
		</g>
	</g>
	<g>
		<g>
			<path fill="#FC3B00" d="M300.6,66.5c-4.5,0-8.5,1.8-11.5,4.6c-1.2-1.8-1.9-3.9-2.6-6.2c2.3,0,4.6,0,6.8,0c0-1.7-0.2-4.2-0.8-5.9
				c-1.5-4.4-5.7-7.6-10.6-7.6c-4.9,0-9.1,3.2-10.6,7.6c-1.4,4.2-2.2,8.7-4.4,11.9c-3-2.9-7-4.6-11.5-4.6c-9.1,0-16.5,7.4-16.5,16.5
				l0,55c0,0.9,0.9,1.6,1.8,1.5c5-0.9,8.7-5.3,8.7-10.3v-2c4.4-1.3,7.5-5.4,7.5-10.1l0-2c1.8-0.5,3.3-1.5,4.6-2.8v6.9
				c0,4.7,3.1,8.8,7.5,10.1c0,5,4,9.7,9,10.3c5-0.5,9-5.3,9-10.3c4.4-1.3,7.5-5.4,7.5-10.1v-6.9c1.2,1.3,2.8,2.2,4.6,2.8v2
				c0,4.7,3.1,8.8,7.5,10.1v2c0,5.1,3.7,9.5,8.7,10.3c0.9,0.2,1.8-0.5,1.8-1.5l0-55C317.1,73.9,309.6,66.5,300.6,66.5z M263,85.3
				c-0.8,0-1.5,0.7-1.5,1.5V105c0,3.1-1.9,5.7-4.6,6.9c0-13.6,0-18.3,0-31.9c0-0.8-0.7-1.5-1.5-1.5c-0.8,0-1.5,0.7-1.5,1.5V117
				c0,3.1-1.9,5.7-4.6,6.9c0-16.3,0-20.8,0-37.2c0-0.8-0.7-1.5-1.5-1.5c-0.8,0-1.5,0.7-1.5,1.5l0,42.4c0,3.1-1.9,5.7-4.6,6.9
				c0-22.6,0-30.4,0-53c0-7.5,6.1-13.6,13.6-13.6c7.5,0,13.6,6.1,13.6,13.6l0,9.8c0,3.1-1.9,5.7-4.6,6.9c0-6.3,0-6.7,0-13
				C264.4,86,263.8,85.3,263,85.3z M291.6,119.2c0,3.1-1.9,5.7-4.6,6.9c0-14.1,0-1.5,0-15.6c0-0.8-0.7-1.5-1.5-1.5
				c-0.8,0-1.5,0.7-1.5,1.5c0,15.1,0,3.6,0,18.7c0,3.1-1.9,5.7-4.6,6.9V113c0-0.8-0.7-1.5-1.5-1.5c-0.8,0-1.5,0.7-1.5,1.5V136
				c-2.7-1.2-4.6-3.8-4.6-6.9c0-15.1,0-3.6,0-18.7c0-0.8-0.7-1.5-1.5-1.5s-1.5,0.7-1.5,1.5c0,14.1,0,1.5,0,15.6
				c-2.7-1.2-4.6-3.8-4.6-6.9c0-5.4,0-10.8,0-16.3c4.4-1.3,7.5-5.4,7.5-10.1c0-5.2,0-4.6,0-9.8c0-3.6-1.1-6.9-3.1-9.6
				c2.8-3.8,3.7-8.9,5.2-13.3c1.1-3.4,4.3-5.6,7.8-5.6c3.5,0,6.7,2.2,7.8,5.6c0.2,0.5,0.3,1.2,0.4,1.9c-1.2,0-2.4,0-3.7,0h-4
				l1.2,3.8c0.9,3,2,5.5,3.5,7.6c-1.9,2.7-3.1,6-3.1,9.6c0,5.2,0,4.6,0,9.8c0,4.7,3.1,8.8,7.5,10.1V119.2z M314.1,136
				c-2.7-1.2-4.6-3.8-4.6-6.9l0-42.4c0-0.8-0.7-1.5-1.5-1.5c-0.8,0-1.5,0.7-1.5,1.5c0,16.4,0,20.8,0,37.2c-2.7-1.2-4.6-3.8-4.6-6.9
				V80c0-0.8-0.7-1.5-1.5-1.5c-0.8,0-1.5,0.7-1.5,1.5c0,13.6,0,18.3,0,31.9c-2.7-1.2-4.6-3.8-4.6-6.9V86.8c0-0.8-0.7-1.5-1.5-1.5
				c-0.8,0-1.5,0.7-1.5,1.5c0,6.3,0,6.7,0,13c-2.7-1.2-4.6-3.8-4.6-6.9l0-9.8c0-7.5,6.1-13.6,13.6-13.6c7.5,0,13.6,6.1,13.6,13.6
				C314.1,105.7,314.1,113.4,314.1,136z"/>
		</g>
	</g>
</g>
</svg>
