<?xml version="1.0" encoding="utf-8"?>
<!-- Generator: Adobe Illustrator 18.1.1, SVG Export Plug-In . SVG Version: 6.00 Build 0)  -->
<!DOCTYPE svg PUBLIC "-//W3C//DTD SVG 1.1//EN" "http://www.w3.org/Graphics/SVG/1.1/DTD/svg11.dtd">
<svg version="1.1" id="Layer_1" xmlns="http://www.w3.org/2000/svg" xmlns:xlink="http://www.w3.org/1999/xlink" x="0px" y="0px"
	 viewBox="0 0 321 128" enable-background="new 0 0 321 128" xml:space="preserve">
<path fill="#FCB935" d="M308,3c5.5,0,10,4.5,10,10v102c0,5.5-4.5,10-10,10H13c-5.5,0-10-4.5-10-10V13C3,7.5,7.5,3,13,3H308 M308,0
	H13C5.8,0,0,5.8,0,13v102c0,7.2,5.8,13,13,13h295c7.2,0,13-5.8,13-13V13C321,5.8,315.2,0,308,0L308,0z"/>
<g>
	<g>
		<path fill-rule="evenodd" clip-rule="evenodd" fill="#FCB935" d="M53.3,39.9c3.4-4.5,8.1-4.5,8.1-4.5s0.7,4.2-2.7,8.2
			c-3.6,4.3-7.7,3.6-7.7,3.6S50.3,43.8,53.3,39.9z"/>
		<path fill-rule="evenodd" clip-rule="evenodd" fill="#FCB935" d="M51.5,50.2c1.7,0,5-2.4,9.2-2.4c7.2,0,10.1,5.1,10.1,5.1
			s-5.6,2.8-5.6,9.8c0,7.8,6.9,10.5,6.9,10.5s-4.8,13.6-11.4,13.6c-3,0-5.3-2-8.5-2c-3.2,0-6.4,2.1-8.5,2.1
			c-6,0-13.5-12.9-13.5-23.4c0-10.2,6.4-15.6,12.4-15.6C46.4,47.9,49.5,50.2,51.5,50.2z"/>
	</g>
	<g>
		<g>
			<path fill="#FFBA00" d="M97.2,54.2V33c0-0.3,0.1-0.6,0.4-0.8s0.6-0.3,1.1-0.3h5.7c2.2,0,3.9,0.6,5.2,1.7s2,3,2,5.4v9.1
				c0,2.5-0.7,4.3-2,5.4s-3.1,1.7-5.2,1.7h-5.7c-0.4,0-0.8-0.1-1.1-0.3S97.2,54.5,97.2,54.2z M100.6,52.3h3.8c2.5,0,3.8-1.4,3.8-4.1
				V39c0-2.8-1.3-4.1-3.8-4.1h-3.8V52.3z"/>
			<path fill="#FFBA00" d="M114.3,49.1v-2.9c0-1.7,0.7-3.2,2-4.4c1.3-1.3,2.9-1.9,4.7-1.9c1.8,0,3.3,0.6,4.6,1.9
				c1.3,1.2,2,2.7,2,4.4v2.9c0,1.7-0.7,3.1-2,4.4c-1.3,1.3-2.9,1.9-4.6,1.9c-1.8,0-3.3-0.6-4.6-1.9
				C114.9,52.3,114.3,50.8,114.3,49.1z M117.6,49.1c0,0.9,0.3,1.6,1,2.3c0.6,0.7,1.4,1,2.3,1c0.9,0,1.6-0.3,2.3-1
				c0.7-0.7,1-1.5,1-2.3v-2.9c0-0.8-0.3-1.6-1-2.3c-0.7-0.7-1.4-1-2.3-1c-0.9,0-1.7,0.3-2.3,1c-0.6,0.7-1,1.4-1,2.3V49.1z"/>
			<path fill="#FFBA00" d="M128.7,41.4c0-0.4,0.2-0.7,0.7-1s0.9-0.4,1.4-0.4c0.5,0,0.9,0.2,1,0.6l3.6,10l2.7-8.8
				c0.1-0.5,0.5-0.7,1.2-0.7c0.6,0,1,0.2,1.2,0.7l2.7,8.9l3.6-10c0.1-0.4,0.5-0.6,1-0.6c0.5,0,0.9,0.1,1.4,0.4s0.7,0.6,0.7,1
				c0,0.2,0,0.3-0.1,0.5l-5,13c-0.2,0.4-0.6,0.7-1.3,0.7c-0.7,0-1.2-0.2-1.4-0.6l-2.8-8.3l-2.8,8.2c-0.2,0.5-0.7,0.7-1.4,0.7
				c-0.7,0-1.2-0.2-1.3-0.7l-5-12.9C128.7,41.7,128.7,41.5,128.7,41.4z"/>
			<path fill="#FFBA00" d="M151.7,54.1v-13c0-0.3,0.2-0.6,0.5-0.8c0.3-0.2,0.7-0.3,1.2-0.3c0.4,0,0.8,0.1,1.1,0.3s0.4,0.5,0.4,0.8
				v1.2c0.3-0.7,0.9-1.3,1.6-1.7c0.8-0.5,1.6-0.7,2.6-0.7c1.5,0,2.8,0.6,3.9,1.9c1.1,1.2,1.6,2.7,1.6,4.4v7.9c0,0.3-0.2,0.6-0.5,0.8
				c-0.3,0.2-0.7,0.3-1.2,0.3c-0.4,0-0.8-0.1-1.2-0.3c-0.3-0.2-0.5-0.5-0.5-0.8v-7.9c0-0.9-0.3-1.6-1-2.3c-0.6-0.7-1.4-1-2.3-1
				c-0.8,0-1.5,0.3-2.1,0.9s-0.9,1.4-0.9,2.4v7.9c0,0.3-0.2,0.5-0.5,0.8s-0.7,0.4-1.2,0.4c-0.5,0-0.9-0.1-1.2-0.4
				C151.9,54.7,151.7,54.4,151.7,54.1z"/>
			<path fill="#FFBA00" d="M168.1,54.1v-22c0-0.3,0.2-0.6,0.5-0.8c0.3-0.2,0.7-0.3,1.2-0.3c0.5,0,0.9,0.1,1.2,0.3
				c0.3,0.2,0.5,0.5,0.5,0.8v22c0,0.3-0.2,0.5-0.5,0.8c-0.3,0.2-0.7,0.4-1.2,0.4c-0.5,0-0.9-0.1-1.2-0.4
				C168.3,54.7,168.1,54.4,168.1,54.1z"/>
			<path fill="#FFBA00" d="M174.3,49.1v-2.9c0-1.7,0.7-3.2,2-4.4c1.3-1.3,2.9-1.9,4.7-1.9c1.8,0,3.3,0.6,4.6,1.9
				c1.3,1.2,2,2.7,2,4.4v2.9c0,1.7-0.7,3.1-2,4.4c-1.3,1.3-2.9,1.9-4.6,1.9c-1.8,0-3.3-0.6-4.6-1.9C175,52.3,174.3,50.8,174.3,49.1z
				 M177.7,49.1c0,0.9,0.3,1.6,1,2.3c0.6,0.7,1.4,1,2.3,1c0.9,0,1.6-0.3,2.3-1c0.7-0.7,1-1.5,1-2.3v-2.9c0-0.8-0.3-1.6-1-2.3
				c-0.7-0.7-1.4-1-2.3-1c-0.9,0-1.7,0.3-2.3,1c-0.6,0.7-1,1.4-1,2.3V49.1z"/>
			<path fill="#FFBA00" d="M189.2,51.3c0-1.7,0.6-2.9,1.9-3.6c1.3-0.7,3.1-1,5.6-1h1.4v-0.6c0-1-0.3-1.8-0.8-2.5
				c-0.5-0.7-1.3-1-2.4-1c-0.9,0-1.7,0.2-2.4,0.5s-1.1,0.5-1.1,0.5c-0.4,0-0.7-0.2-0.9-0.5c-0.2-0.4-0.3-0.7-0.3-1.2
				c0-0.6,0.5-1,1.6-1.4c1-0.4,2.1-0.6,3.3-0.6c2.2,0,3.8,0.6,4.9,1.8c1.1,1.2,1.6,2.7,1.6,4.4v8c0,0.3-0.2,0.6-0.5,0.8
				s-0.7,0.3-1.2,0.3c-0.4,0-0.8-0.1-1.1-0.3c-0.3-0.2-0.4-0.5-0.4-0.8V53c-1.4,1.7-3,2.5-4.8,2.5c-1.2,0-2.3-0.4-3.1-1.1
				C189.6,53.7,189.2,52.7,189.2,51.3z M192.6,50.9c0,0.7,0.2,1.2,0.6,1.6c0.4,0.4,0.9,0.5,1.5,0.5c0.8,0,1.6-0.3,2.3-1
				c0.7-0.7,1.1-1.4,1.1-2.2v-1.2h-0.8c-1,0-1.7,0-2.4,0.1c-0.6,0.1-1.2,0.3-1.6,0.7C192.9,49.7,192.6,50.2,192.6,50.9z"/>
			<path fill="#FFBA00" d="M204,49.1v-2.9c0-1.7,0.6-3.2,1.7-4.4c1.1-1.2,2.5-1.9,4-1.9c0.9,0,1.8,0.2,2.5,0.7
				c0.7,0.5,1.3,1.1,1.7,1.7V32.2c0-0.3,0.2-0.6,0.5-0.8c0.3-0.2,0.7-0.3,1.2-0.3c0.5,0,0.9,0.1,1.2,0.3c0.3,0.2,0.5,0.5,0.5,0.8v22
				c0,0.3-0.2,0.5-0.5,0.8c-0.3,0.2-0.7,0.4-1.2,0.4c-0.4,0-0.8-0.1-1.1-0.4s-0.5-0.5-0.5-0.8V53c-0.3,0.7-0.9,1.3-1.7,1.8
				c-0.8,0.5-1.7,0.7-2.7,0.7c-1.5,0-2.8-0.6-3.9-1.9C204.6,52.3,204,50.8,204,49.1z M207.4,49.1c0,0.9,0.3,1.6,1,2.3
				c0.6,0.7,1.4,1,2.3,1c0.8,0,1.6-0.3,2.3-1c0.7-0.6,1-1.2,1-1.7v-3.7c0-1-0.3-1.8-1-2.4c-0.7-0.6-1.4-0.9-2.3-0.9
				c-0.9,0-1.6,0.3-2.3,1c-0.7,0.7-1,1.4-1,2.3V49.1z"/>
			<path fill="#FFBA00" d="M226.6,54.2v-17c0-1.7,0.6-3.2,1.7-4.3c1.1-1.2,2.4-1.8,4-1.8h1.5c0.4,0,0.7,0.1,1,0.4
				c0.2,0.3,0.4,0.6,0.4,1c0,0.4-0.1,0.7-0.4,1c-0.2,0.3-0.6,0.4-1,0.4h-0.8c-0.9,0-1.6,0.3-2.1,0.8c-0.6,0.6-0.8,1.2-0.8,2.1v3.2
				h4.2c0.3,0,0.5,0.1,0.7,0.4c0.2,0.2,0.3,0.5,0.3,0.9s-0.1,0.6-0.3,0.9c-0.2,0.2-0.4,0.4-0.7,0.4H230v11.6c0,0.3-0.2,0.6-0.5,0.8
				c-0.3,0.2-0.7,0.3-1.2,0.3s-0.9-0.1-1.2-0.3C226.8,54.8,226.6,54.5,226.6,54.2z"/>
			<path fill="#FFBA00" d="M236.8,54.1v-13c0-0.3,0.2-0.6,0.5-0.8c0.3-0.2,0.7-0.3,1.2-0.3c0.4,0,0.8,0.1,1.1,0.3s0.4,0.5,0.4,0.8
				v1.4c0.4-0.8,0.9-1.4,1.6-1.9s1.5-0.8,2.4-0.8h1c0.3,0,0.6,0.1,0.9,0.4s0.4,0.6,0.4,1.1c0,0.4-0.1,0.8-0.4,1.1
				c-0.3,0.3-0.6,0.5-0.9,0.5h-1c-1,0-1.9,0.4-2.7,1.3c-0.8,0.9-1.2,2-1.2,3.4v6.5c0,0.3-0.2,0.5-0.5,0.8c-0.3,0.2-0.7,0.4-1.2,0.4
				c-0.5,0-0.9-0.1-1.2-0.4C236.9,54.7,236.8,54.4,236.8,54.1z"/>
			<path fill="#FFBA00" d="M247,49.1v-2.9c0-1.7,0.7-3.2,2-4.4c1.3-1.3,2.9-1.9,4.7-1.9c1.8,0,3.3,0.6,4.6,1.9c1.3,1.2,2,2.7,2,4.4
				v2.9c0,1.7-0.7,3.1-2,4.4c-1.3,1.3-2.9,1.9-4.6,1.9c-1.8,0-3.3-0.6-4.6-1.9C247.6,52.3,247,50.8,247,49.1z M250.3,49.1
				c0,0.9,0.3,1.6,1,2.3c0.6,0.7,1.4,1,2.3,1c0.9,0,1.6-0.3,2.3-1c0.7-0.7,1-1.5,1-2.3v-2.9c0-0.8-0.3-1.6-1-2.3
				c-0.7-0.7-1.4-1-2.3-1c-0.9,0-1.7,0.3-2.3,1c-0.6,0.7-1,1.4-1,2.3V49.1z"/>
			<path fill="#FFBA00" d="M262.8,54.1v-13c0-0.3,0.2-0.6,0.5-0.8s0.7-0.3,1.2-0.3c0.4,0,0.8,0.1,1.1,0.3c0.3,0.2,0.4,0.5,0.4,0.8
				v1.2c0.9-1.6,2.3-2.5,4.3-2.5c0.9,0,1.8,0.3,2.5,0.9c0.7,0.6,1.3,1.4,1.7,2.3c0.5-1.1,1.2-1.9,2.1-2.4c0.9-0.5,1.8-0.8,2.7-0.8
				c1.5,0,2.8,0.6,3.9,1.7c1.1,1.1,1.6,2.7,1.6,4.6v7.9c0,0.3-0.2,0.5-0.5,0.8c-0.3,0.2-0.7,0.4-1.2,0.4c-0.4,0-0.8-0.1-1.2-0.4
				s-0.5-0.5-0.5-0.8v-7.9c0-1-0.3-1.9-0.9-2.5c-0.6-0.6-1.3-0.9-2.1-0.9c-0.8,0-1.5,0.3-2.1,0.9c-0.6,0.6-0.9,1.4-0.9,2.4v8
				c0,0.4-0.2,0.6-0.5,0.8c-0.3,0.2-0.7,0.3-1.2,0.3c-0.4,0-0.8-0.1-1.2-0.3c-0.3-0.2-0.5-0.5-0.5-0.8v-8c0-1-0.3-1.7-0.9-2.4
				c-0.6-0.6-1.3-0.9-2.1-0.9s-1.5,0.3-2.1,0.9s-0.9,1.4-0.9,2.4v7.9c0,0.3-0.2,0.5-0.5,0.8c-0.3,0.2-0.7,0.4-1.2,0.4
				c-0.5,0-0.9-0.1-1.2-0.4C263,54.7,262.8,54.4,262.8,54.1z"/>
		</g>
		<path fill="#FFBA00" d="M97.3,87V71c0-0.3,0.2-0.6,0.5-0.8c0.3-0.2,0.7-0.3,1.2-0.3s0.8,0.1,1.2,0.3c0.4,0.2,0.5,0.5,0.5,0.8v5.9
			h3.9c0.3,0,0.5,0.1,0.7,0.4s0.3,0.5,0.3,0.9s-0.1,0.6-0.3,0.9c-0.2,0.2-0.4,0.4-0.7,0.4h-3.9V87c0,0.8,0.2,1.3,0.5,1.6
			c0.3,0.3,0.9,0.5,1.7,0.5h1.1c0.4,0,0.8,0.1,1.1,0.4s0.4,0.6,0.4,1s-0.1,0.7-0.4,1c-0.3,0.3-0.6,0.4-1.1,0.4h-1.1
			C99.1,92,97.3,90.3,97.3,87z"/>
		<path fill="#FFBA00" d="M107.5,90.9v-22c0-0.3,0.2-0.6,0.5-0.8c0.3-0.2,0.7-0.3,1.2-0.3c0.5,0,0.9,0.1,1.2,0.3
			c0.3,0.2,0.5,0.5,0.5,0.8v10.2c0.3-0.7,0.9-1.3,1.6-1.7c0.7-0.5,1.6-0.7,2.5-0.7c1.5,0,2.8,0.6,3.9,1.9s1.6,2.7,1.6,4.4v7.9
			c0,0.3-0.2,0.6-0.5,0.8c-0.3,0.2-0.7,0.3-1.2,0.3c-0.4,0-0.8-0.1-1.2-0.3c-0.3-0.2-0.5-0.5-0.5-0.8v-7.9c0-0.9-0.3-1.6-1-2.3
			s-1.4-1-2.3-1c-0.8,0-1.5,0.3-2.1,0.9c-0.6,0.6-0.9,1.4-0.9,2.4v7.9c0,0.3-0.2,0.5-0.5,0.8c-0.3,0.2-0.7,0.4-1.2,0.4
			c-0.5,0-0.9-0.1-1.2-0.4C107.7,91.4,107.5,91.1,107.5,90.9z"/>
		<path fill="#FFBA00" d="M123.1,85.9v-3c0-1.7,0.7-3.1,2-4.4c1.3-1.2,2.9-1.8,4.7-1.8c1.7,0,3.2,0.6,4.5,1.7
			c1.2,1.1,1.9,2.5,1.9,4.2c0,0.7-0.1,1.2-0.2,1.6c-0.1,0.4-0.4,0.7-0.7,0.8c-0.3,0.2-0.6,0.3-0.9,0.3s-0.6,0.1-1.1,0.1h-6.8V86
			c0,1.1,0.4,1.9,1.2,2.6c0.8,0.6,1.8,1,3,1c0.9,0,1.7-0.2,2.5-0.6c0.8-0.4,1.3-0.6,1.4-0.6c0.4,0,0.7,0.2,0.9,0.5
			c0.3,0.3,0.4,0.7,0.4,1c0,0.5-0.5,1.1-1.5,1.6c-1,0.5-2.3,0.8-3.8,0.8c-2.2,0-4-0.6-5.3-1.8C123.8,89.3,123.1,87.8,123.1,85.9z
			 M126.4,83.1h5.3c0.5,0,0.8-0.1,0.9-0.2s0.2-0.4,0.2-0.8c0-0.8-0.3-1.6-0.9-2.1c-0.6-0.6-1.4-0.9-2.3-0.9c-0.9,0-1.7,0.3-2.3,0.8
			s-1,1.3-1,2.1V83.1z"/>
		<path fill="#FFBA00" d="M143.3,90.6c0-0.1,0-0.2,0-0.3l6.4-20.7c0.3-0.8,1-1.2,2.3-1.2c1.3,0,2,0.4,2.3,1.1l6.3,20.7
			c0,0.1,0.1,0.2,0.1,0.3c0,0.4-0.2,0.7-0.7,1c-0.5,0.3-1,0.4-1.6,0.4c-0.7,0-1.1-0.2-1.3-0.7l-1.3-4.6h-7.9l-1.3,4.6
			c-0.1,0.5-0.5,0.7-1.2,0.7c-0.5,0-1-0.1-1.4-0.4C143.5,91.3,143.3,91,143.3,90.6z M148.6,84h6.4l-3.2-11L148.6,84z"/>
		<path fill="#FFBA00" d="M162.3,98.1V77.9c0-0.3,0.2-0.6,0.5-0.8s0.7-0.3,1.1-0.3c0.4,0,0.8,0.1,1.1,0.3s0.4,0.5,0.4,0.8v1.2
			c0.4-0.7,1-1.3,1.7-1.7c0.8-0.5,1.6-0.7,2.6-0.7c1.6,0,3,0.6,4.1,1.9s1.7,2.7,1.7,4.4v2.9c0,1.7-0.6,3.1-1.7,4.4
			c-1.1,1.3-2.4,1.9-3.9,1.9c-0.9,0-1.8-0.2-2.5-0.7c-0.8-0.5-1.3-1.1-1.7-1.8v8.3c0,0.3-0.2,0.6-0.5,0.8c-0.3,0.2-0.7,0.3-1.2,0.3
			c-0.5,0-0.9-0.1-1.2-0.3C162.4,98.6,162.3,98.4,162.3,98.1z M165.6,86.6c0,0.5,0.3,1,1,1.7c0.7,0.6,1.4,1,2.3,1s1.6-0.3,2.3-1
			c0.7-0.7,1-1.5,1-2.3v-2.9c0-0.8-0.3-1.6-1-2.3c-0.7-0.7-1.4-1-2.3-1c-0.8,0-1.6,0.3-2.2,0.9c-0.6,0.6-1,1.4-1,2.4V86.6z"/>
		<path fill="#FFBA00" d="M178.1,98.1V77.9c0-0.3,0.2-0.6,0.5-0.8s0.7-0.3,1.1-0.3c0.4,0,0.8,0.1,1.1,0.3s0.4,0.5,0.4,0.8v1.2
			c0.4-0.7,1-1.3,1.7-1.7c0.8-0.5,1.6-0.7,2.6-0.7c1.6,0,3,0.6,4.1,1.9s1.7,2.7,1.7,4.4v2.9c0,1.7-0.6,3.1-1.7,4.4
			c-1.1,1.3-2.4,1.9-3.9,1.9c-0.9,0-1.8-0.2-2.5-0.7c-0.8-0.5-1.3-1.1-1.7-1.8v8.3c0,0.3-0.2,0.6-0.5,0.8c-0.3,0.2-0.7,0.3-1.2,0.3
			c-0.5,0-0.9-0.1-1.2-0.3C178.3,98.6,178.1,98.4,178.1,98.1z M181.5,86.6c0,0.5,0.3,1,1,1.7c0.7,0.6,1.4,1,2.3,1s1.6-0.3,2.3-1
			c0.7-0.7,1-1.5,1-2.3v-2.9c0-0.8-0.3-1.6-1-2.3c-0.7-0.7-1.4-1-2.3-1c-0.8,0-1.6,0.3-2.2,0.9c-0.6,0.6-1,1.4-1,2.4V86.6z"/>
		<path fill="#FFBA00" d="M199.2,88.5c0-0.4,0.1-0.8,0.4-1.2s0.6-0.6,1-0.6c0.2,0,0.5,0.1,0.8,0.4c0.3,0.3,0.7,0.6,1,0.9
			c0.3,0.3,0.8,0.6,1.5,0.9s1.4,0.4,2.2,0.4c1.2,0,2.2-0.3,2.9-0.9c0.7-0.6,1.1-1.4,1.1-2.5c0-1-0.4-1.9-1.1-2.6
			c-0.7-0.7-1.6-1.2-2.6-1.6c-1-0.4-2-0.8-3.1-1.3c-1-0.5-1.9-1.2-2.6-2.1c-0.7-0.9-1.1-2.1-1.1-3.5c0-1.1,0.2-2.1,0.7-2.9
			c0.4-0.8,1-1.5,1.8-1.9c0.7-0.4,1.5-0.8,2.4-1s1.7-0.3,2.6-0.3c0.6,0,1.2,0,1.8,0.1c0.6,0.1,1.3,0.2,1.9,0.4
			c0.6,0.2,1.1,0.4,1.5,0.7c0.4,0.3,0.6,0.7,0.6,1.1s-0.1,0.8-0.4,1.2c-0.3,0.4-0.6,0.6-1,0.6c-0.2,0-0.5-0.1-0.9-0.3
			c-0.4-0.2-0.8-0.4-1.5-0.6c-0.6-0.2-1.3-0.3-2.1-0.3c-1.2,0-2.2,0.2-2.9,0.7c-0.7,0.5-1.1,1.2-1.1,2.2c0,0.6,0.2,1.2,0.6,1.7
			c0.4,0.5,0.9,0.8,1.5,1.1s1.3,0.6,2,0.9c0.7,0.3,1.5,0.6,2.2,1c0.7,0.4,1.4,0.8,2,1.3c0.6,0.5,1.1,1.2,1.5,2.1s0.6,1.9,0.6,3.1
			c0,2.2-0.7,3.9-2,5c-1.3,1.2-3.1,1.7-5.3,1.7c-2,0-3.6-0.4-5-1.2C199.9,90.2,199.2,89.3,199.2,88.5z"/>
		<path fill="#FFBA00" d="M216.1,87V71c0-0.3,0.2-0.6,0.5-0.8c0.3-0.2,0.7-0.3,1.2-0.3s0.8,0.1,1.2,0.3c0.4,0.2,0.5,0.5,0.5,0.8v5.9
			h3.9c0.3,0,0.5,0.1,0.7,0.4s0.3,0.5,0.3,0.9s-0.1,0.6-0.3,0.9c-0.2,0.2-0.4,0.4-0.7,0.4h-3.9V87c0,0.8,0.2,1.3,0.5,1.6
			c0.3,0.3,0.9,0.5,1.7,0.5h1.1c0.4,0,0.8,0.1,1.1,0.4s0.4,0.6,0.4,1s-0.1,0.7-0.4,1c-0.3,0.3-0.6,0.4-1.1,0.4h-1.1
			C218,92,216.1,90.3,216.1,87z"/>
		<path fill="#FFBA00" d="M225.5,85.9v-2.9c0-1.7,0.7-3.2,2-4.4c1.3-1.3,2.9-1.9,4.7-1.9c1.8,0,3.3,0.6,4.6,1.9c1.3,1.2,2,2.7,2,4.4
			v2.9c0,1.7-0.7,3.1-2,4.4c-1.3,1.3-2.9,1.9-4.6,1.9c-1.8,0-3.3-0.6-4.6-1.9C226.2,89,225.5,87.6,225.5,85.9z M228.9,85.9
			c0,0.9,0.3,1.6,1,2.3c0.6,0.7,1.4,1,2.3,1c0.9,0,1.6-0.3,2.3-1c0.7-0.7,1-1.5,1-2.3v-2.9c0-0.8-0.3-1.6-1-2.3
			c-0.7-0.7-1.4-1-2.3-1c-0.9,0-1.7,0.3-2.3,1c-0.6,0.7-1,1.4-1,2.3V85.9z"/>
		<path fill="#FFBA00" d="M241.4,90.9v-13c0-0.3,0.2-0.6,0.5-0.8s0.7-0.3,1.2-0.3c0.4,0,0.8,0.1,1.1,0.3c0.3,0.2,0.4,0.5,0.4,0.8
			v1.4c0.4-0.8,0.9-1.4,1.6-1.9c0.7-0.5,1.5-0.8,2.4-0.8h1c0.3,0,0.6,0.1,0.9,0.4s0.4,0.6,0.4,1.1c0,0.4-0.1,0.8-0.4,1.1
			c-0.3,0.3-0.6,0.5-0.9,0.5h-1c-1,0-1.9,0.4-2.7,1.3c-0.8,0.9-1.2,2-1.2,3.4v6.5c0,0.3-0.2,0.5-0.5,0.8c-0.3,0.2-0.7,0.4-1.2,0.4
			c-0.5,0-0.9-0.1-1.2-0.4C241.5,91.4,241.4,91.1,241.4,90.9z"/>
		<path fill="#FFBA00" d="M251.6,85.9v-3c0-1.7,0.7-3.1,2-4.4c1.3-1.2,2.9-1.8,4.7-1.8c1.7,0,3.2,0.6,4.5,1.7
			c1.2,1.1,1.9,2.5,1.9,4.2c0,0.7-0.1,1.2-0.2,1.6c-0.1,0.4-0.4,0.7-0.7,0.8c-0.3,0.2-0.6,0.3-0.9,0.3s-0.6,0.1-1.1,0.1H255V86
			c0,1.1,0.4,1.9,1.2,2.6c0.8,0.6,1.8,1,3,1c0.9,0,1.7-0.2,2.5-0.6c0.8-0.4,1.3-0.6,1.4-0.6c0.4,0,0.7,0.2,0.9,0.5
			c0.3,0.3,0.4,0.7,0.4,1c0,0.5-0.5,1.1-1.5,1.6c-1,0.5-2.3,0.8-3.8,0.8c-2.2,0-4-0.6-5.3-1.8C252.3,89.3,251.6,87.8,251.6,85.9z
			 M255,83.1h5.3c0.5,0,0.8-0.1,0.9-0.2s0.2-0.4,0.2-0.8c0-0.8-0.3-1.6-0.9-2.1c-0.6-0.6-1.4-0.9-2.3-0.9c-0.9,0-1.7,0.3-2.3,0.8
			c-0.6,0.6-1,1.3-1,2.1V83.1z"/>
	</g>
</g>
</svg>
