<?xml version="1.0" encoding="utf-8"?>
<!-- Generator: Adobe Illustrator 18.1.1, SVG Export Plug-In . SVG Version: 6.00 Build 0)  -->
<!DOCTYPE svg PUBLIC "-//W3C//DTD SVG 1.1//EN" "http://www.w3.org/Graphics/SVG/1.1/DTD/svg11.dtd">
<svg version="1.1" id="Layer_1" xmlns="http://www.w3.org/2000/svg" xmlns:xlink="http://www.w3.org/1999/xlink" x="0px" y="0px"
	 viewBox="0 0 463 83" enable-background="new 0 0 463 83" xml:space="preserve">
<path fill="#FCB935" d="M450,3c5.5,0,10,4.5,10,10v57c0,5.5-4.5,10-10,10H13C7.5,80,3,75.5,3,70V13C3,7.5,7.5,3,13,3H450 M450,0H13
	C5.8,0,0,5.8,0,13v57c0,7.2,5.8,13,13,13h437c7.2,0,13-5.8,13-13V13C463,5.8,457.2,0,450,0L450,0z"/>
<g>
	<path fill="#FFBA00" d="M71.3,51.3V30.1c0-0.3,0.1-0.6,0.4-0.8s0.6-0.3,1.1-0.3h5.7c2.2,0,3.9,0.6,5.2,1.7s2,3,2,5.4v9.1
		c0,2.5-0.7,4.3-2,5.4s-3.1,1.7-5.2,1.7h-5.7c-0.4,0-0.8-0.1-1.1-0.3S71.3,51.6,71.3,51.3z M74.7,49.4h3.8c2.5,0,3.8-1.4,3.8-4.1
		v-9.1c0-2.8-1.3-4.1-3.8-4.1h-3.8V49.4z"/>
	<path fill="#FFBA00" d="M88.3,46.3v-2.9c0-1.7,0.7-3.2,2-4.4c1.3-1.3,2.9-1.9,4.7-1.9c1.8,0,3.3,0.6,4.6,1.9c1.3,1.2,2,2.7,2,4.4
		v2.9c0,1.7-0.7,3.1-2,4.4c-1.3,1.3-2.9,1.9-4.6,1.9c-1.8,0-3.3-0.6-4.6-1.9C89,49.4,88.3,47.9,88.3,46.3z M91.7,46.3
		c0,0.9,0.3,1.6,1,2.3c0.6,0.7,1.4,1,2.3,1c0.9,0,1.6-0.3,2.3-1c0.7-0.7,1-1.5,1-2.3v-2.9c0-0.8-0.3-1.6-1-2.3c-0.7-0.7-1.4-1-2.3-1
		c-0.9,0-1.7,0.3-2.3,1c-0.6,0.7-1,1.4-1,2.3V46.3z"/>
	<path fill="#FFBA00" d="M102.8,38.5c0-0.4,0.2-0.7,0.7-1s0.9-0.4,1.4-0.4c0.5,0,0.9,0.2,1,0.6l3.6,10l2.7-8.8
		c0.1-0.5,0.5-0.7,1.2-0.7c0.6,0,1,0.2,1.2,0.7l2.7,8.9l3.6-10c0.1-0.4,0.5-0.6,1-0.6c0.5,0,0.9,0.1,1.4,0.4s0.7,0.6,0.7,1
		c0,0.2,0,0.3-0.1,0.5l-5,13c-0.2,0.4-0.6,0.7-1.3,0.7c-0.7,0-1.2-0.2-1.4-0.6l-2.8-8.3l-2.8,8.2c-0.2,0.5-0.7,0.7-1.4,0.7
		c-0.7,0-1.2-0.2-1.3-0.7l-5-12.9C102.8,38.8,102.8,38.6,102.8,38.5z"/>
	<path fill="#FFBA00" d="M125.8,51.3v-13c0-0.3,0.2-0.6,0.5-0.8c0.3-0.2,0.7-0.3,1.2-0.3c0.4,0,0.8,0.1,1.1,0.3s0.4,0.5,0.4,0.8v1.2
		c0.3-0.7,0.9-1.3,1.6-1.7c0.8-0.5,1.6-0.7,2.6-0.7c1.5,0,2.8,0.6,3.9,1.9c1.1,1.2,1.6,2.7,1.6,4.4v7.9c0,0.3-0.2,0.6-0.5,0.8
		c-0.3,0.2-0.7,0.3-1.2,0.3c-0.4,0-0.8-0.1-1.2-0.3c-0.3-0.2-0.5-0.5-0.5-0.8v-7.9c0-0.9-0.3-1.6-1-2.3c-0.6-0.7-1.4-1-2.3-1
		c-0.8,0-1.5,0.3-2.1,0.9s-0.9,1.4-0.9,2.4v7.9c0,0.3-0.2,0.5-0.5,0.8s-0.7,0.4-1.2,0.4c-0.5,0-0.9-0.1-1.2-0.4
		C125.9,51.8,125.8,51.5,125.8,51.3z"/>
	<path fill="#FFBA00" d="M142.2,51.3v-22c0-0.3,0.2-0.6,0.5-0.8c0.3-0.2,0.7-0.3,1.2-0.3c0.5,0,0.9,0.1,1.2,0.3
		c0.3,0.2,0.5,0.5,0.5,0.8v22c0,0.3-0.2,0.5-0.5,0.8c-0.3,0.2-0.7,0.4-1.2,0.4c-0.5,0-0.9-0.1-1.2-0.4
		C142.3,51.8,142.2,51.5,142.2,51.3z"/>
	<path fill="#FFBA00" d="M148.4,46.3v-2.9c0-1.7,0.7-3.2,2-4.4c1.3-1.3,2.9-1.9,4.7-1.9c1.8,0,3.3,0.6,4.6,1.9c1.3,1.2,2,2.7,2,4.4
		v2.9c0,1.7-0.7,3.1-2,4.4c-1.3,1.3-2.9,1.9-4.6,1.9c-1.8,0-3.3-0.6-4.6-1.9C149.1,49.4,148.4,47.9,148.4,46.3z M151.8,46.3
		c0,0.9,0.3,1.6,1,2.3c0.6,0.7,1.4,1,2.3,1c0.9,0,1.6-0.3,2.3-1c0.7-0.7,1-1.5,1-2.3v-2.9c0-0.8-0.3-1.6-1-2.3c-0.7-0.7-1.4-1-2.3-1
		c-0.9,0-1.7,0.3-2.3,1c-0.6,0.7-1,1.4-1,2.3V46.3z"/>
	<path fill="#FFBA00" d="M163.3,48.4c0-1.7,0.6-2.9,1.9-3.6c1.3-0.7,3.1-1,5.6-1h1.4v-0.6c0-1-0.3-1.8-0.8-2.5c-0.5-0.7-1.3-1-2.4-1
		c-0.9,0-1.7,0.2-2.4,0.5s-1.1,0.5-1.1,0.5c-0.4,0-0.7-0.2-0.9-0.5c-0.2-0.4-0.3-0.7-0.3-1.2c0-0.6,0.5-1,1.6-1.4
		c1-0.4,2.1-0.6,3.3-0.6c2.2,0,3.8,0.6,4.9,1.8c1.1,1.2,1.6,2.7,1.6,4.4v8c0,0.3-0.2,0.6-0.5,0.8s-0.7,0.3-1.2,0.3
		c-0.4,0-0.8-0.1-1.1-0.3c-0.3-0.2-0.4-0.5-0.4-0.8v-1.1c-1.4,1.7-3,2.5-4.8,2.5c-1.2,0-2.3-0.4-3.1-1.1
		C163.7,50.8,163.3,49.8,163.3,48.4z M166.7,48c0,0.7,0.2,1.2,0.6,1.6c0.4,0.4,0.9,0.5,1.5,0.5c0.8,0,1.6-0.3,2.3-1
		c0.7-0.7,1.1-1.4,1.1-2.2v-1.2h-0.8c-1,0-1.7,0-2.4,0.1c-0.6,0.1-1.2,0.3-1.6,0.7C167,46.8,166.7,47.3,166.7,48z"/>
	<path fill="#FFBA00" d="M178.1,46.3v-2.9c0-1.7,0.6-3.2,1.7-4.4c1.1-1.2,2.5-1.9,4-1.9c0.9,0,1.8,0.2,2.5,0.7
		c0.7,0.5,1.3,1.1,1.7,1.7V29.3c0-0.3,0.2-0.6,0.5-0.8c0.3-0.2,0.7-0.3,1.2-0.3c0.5,0,0.9,0.1,1.2,0.3c0.3,0.2,0.5,0.5,0.5,0.8v22
		c0,0.3-0.2,0.5-0.5,0.8c-0.3,0.2-0.7,0.4-1.2,0.4c-0.4,0-0.8-0.1-1.1-0.4s-0.5-0.5-0.5-0.8v-1.1c-0.3,0.7-0.9,1.3-1.7,1.8
		c-0.8,0.5-1.7,0.7-2.7,0.7c-1.5,0-2.8-0.6-3.9-1.9C178.7,49.4,178.1,47.9,178.1,46.3z M181.5,46.3c0,0.9,0.3,1.6,1,2.3
		c0.6,0.7,1.4,1,2.3,1c0.8,0,1.6-0.3,2.3-1c0.7-0.6,1-1.2,1-1.7v-3.7c0-1-0.3-1.8-1-2.4c-0.7-0.6-1.4-0.9-2.3-0.9
		c-0.9,0-1.6,0.3-2.3,1c-0.7,0.7-1,1.4-1,2.3V46.3z"/>
	<path fill="#FFBA00" d="M200.7,51.3v-17c0-1.7,0.6-3.2,1.7-4.3c1.1-1.2,2.4-1.8,4-1.8h1.5c0.4,0,0.7,0.1,1,0.4
		c0.2,0.3,0.4,0.6,0.4,1c0,0.4-0.1,0.7-0.4,1c-0.2,0.3-0.6,0.4-1,0.4H207c-0.9,0-1.6,0.3-2.1,0.8c-0.6,0.6-0.8,1.2-0.8,2.1v3.2h4.2
		c0.3,0,0.5,0.1,0.7,0.4c0.2,0.2,0.3,0.5,0.3,0.9s-0.1,0.6-0.3,0.9c-0.2,0.2-0.4,0.4-0.7,0.4h-4.2v11.6c0,0.3-0.2,0.6-0.5,0.8
		c-0.3,0.2-0.7,0.3-1.2,0.3s-0.9-0.1-1.2-0.3C200.9,51.9,200.7,51.6,200.7,51.3z"/>
	<path fill="#FFBA00" d="M210.8,51.3v-13c0-0.3,0.2-0.6,0.5-0.8c0.3-0.2,0.7-0.3,1.2-0.3c0.4,0,0.8,0.1,1.1,0.3s0.4,0.5,0.4,0.8v1.4
		c0.4-0.8,0.9-1.4,1.6-1.9s1.5-0.8,2.4-0.8h1c0.3,0,0.6,0.1,0.9,0.4s0.4,0.6,0.4,1.1c0,0.4-0.1,0.8-0.4,1.1
		c-0.3,0.3-0.6,0.5-0.9,0.5h-1c-1,0-1.9,0.4-2.7,1.3c-0.8,0.9-1.2,2-1.2,3.4v6.5c0,0.3-0.2,0.5-0.5,0.8c-0.3,0.2-0.7,0.4-1.2,0.4
		c-0.5,0-0.9-0.1-1.2-0.4C211,51.8,210.8,51.5,210.8,51.3z"/>
	<path fill="#FFBA00" d="M221,46.3v-2.9c0-1.7,0.7-3.2,2-4.4c1.3-1.3,2.9-1.9,4.7-1.9c1.8,0,3.3,0.6,4.6,1.9c1.3,1.2,2,2.7,2,4.4
		v2.9c0,1.7-0.7,3.1-2,4.4c-1.3,1.3-2.9,1.9-4.6,1.9c-1.8,0-3.3-0.6-4.6-1.9C221.7,49.4,221,47.9,221,46.3z M224.4,46.3
		c0,0.9,0.3,1.6,1,2.3c0.6,0.7,1.4,1,2.3,1c0.9,0,1.6-0.3,2.3-1c0.7-0.7,1-1.5,1-2.3v-2.9c0-0.8-0.3-1.6-1-2.3c-0.7-0.7-1.4-1-2.3-1
		c-0.9,0-1.7,0.3-2.3,1c-0.6,0.7-1,1.4-1,2.3V46.3z"/>
	<path fill="#FFBA00" d="M236.9,51.3v-13c0-0.3,0.2-0.6,0.5-0.8s0.7-0.3,1.2-0.3c0.4,0,0.8,0.1,1.1,0.3c0.3,0.2,0.4,0.5,0.4,0.8v1.2
		c0.9-1.6,2.3-2.5,4.3-2.5c0.9,0,1.8,0.3,2.5,0.9c0.7,0.6,1.3,1.4,1.7,2.3c0.5-1.1,1.2-1.9,2.1-2.4c0.9-0.5,1.8-0.8,2.7-0.8
		c1.5,0,2.8,0.6,3.9,1.7c1.1,1.1,1.6,2.7,1.6,4.6v7.9c0,0.3-0.2,0.5-0.5,0.8c-0.3,0.2-0.7,0.4-1.2,0.4c-0.4,0-0.8-0.1-1.2-0.4
		s-0.5-0.5-0.5-0.8v-7.9c0-1-0.3-1.9-0.9-2.5c-0.6-0.6-1.3-0.9-2.1-0.9c-0.8,0-1.5,0.3-2.1,0.9c-0.6,0.6-0.9,1.4-0.9,2.4v8
		c0,0.4-0.2,0.6-0.5,0.8c-0.3,0.2-0.7,0.3-1.2,0.3c-0.4,0-0.8-0.1-1.2-0.3c-0.3-0.2-0.5-0.5-0.5-0.8v-8c0-1-0.3-1.7-0.9-2.4
		c-0.6-0.6-1.3-0.9-2.1-0.9s-1.5,0.3-2.1,0.9s-0.9,1.4-0.9,2.4v7.9c0,0.3-0.2,0.5-0.5,0.8c-0.3,0.2-0.7,0.4-1.2,0.4
		c-0.5,0-0.9-0.1-1.2-0.4C237.1,51.8,236.9,51.5,236.9,51.3z"/>
	<path fill="#FFBA00" d="M268.1,47.4v-16c0-0.3,0.2-0.6,0.5-0.8c0.3-0.2,0.7-0.3,1.2-0.3s0.8,0.1,1.2,0.3c0.4,0.2,0.5,0.5,0.5,0.8
		v5.9h3.9c0.3,0,0.5,0.1,0.7,0.4s0.3,0.5,0.3,0.9s-0.1,0.6-0.3,0.9c-0.2,0.2-0.4,0.4-0.7,0.4h-3.9v7.7c0,0.8,0.2,1.3,0.5,1.6
		c0.3,0.3,0.9,0.5,1.7,0.5h1.1c0.4,0,0.8,0.1,1.1,0.4s0.4,0.6,0.4,1s-0.1,0.7-0.4,1c-0.3,0.3-0.6,0.4-1.1,0.4h-1.1
		C269.9,52.4,268.1,50.7,268.1,47.4z"/>
	<path fill="#FFBA00" d="M278.3,51.3v-22c0-0.3,0.2-0.6,0.5-0.8c0.3-0.2,0.7-0.3,1.2-0.3c0.5,0,0.9,0.1,1.2,0.3
		c0.3,0.2,0.5,0.5,0.5,0.8v10.2c0.3-0.7,0.9-1.3,1.6-1.7c0.7-0.5,1.6-0.7,2.5-0.7c1.5,0,2.8,0.6,3.9,1.9s1.6,2.7,1.6,4.4v7.9
		c0,0.3-0.2,0.6-0.5,0.8c-0.3,0.2-0.7,0.3-1.2,0.3c-0.4,0-0.8-0.1-1.2-0.3c-0.3-0.2-0.5-0.5-0.5-0.8v-7.9c0-0.9-0.3-1.6-1-2.3
		s-1.4-1-2.3-1c-0.8,0-1.5,0.3-2.1,0.9c-0.6,0.6-0.9,1.4-0.9,2.4v7.9c0,0.3-0.2,0.5-0.5,0.8c-0.3,0.2-0.7,0.4-1.2,0.4
		c-0.5,0-0.9-0.1-1.2-0.4C278.5,51.8,278.3,51.5,278.3,51.3z"/>
	<path fill="#FFBA00" d="M293.8,46.3v-3c0-1.7,0.7-3.1,2-4.4c1.3-1.2,2.9-1.8,4.7-1.8c1.7,0,3.2,0.6,4.5,1.7
		c1.2,1.1,1.9,2.5,1.9,4.2c0,0.7-0.1,1.2-0.2,1.6c-0.1,0.4-0.4,0.7-0.7,0.8c-0.3,0.2-0.6,0.3-0.9,0.3s-0.6,0.1-1.1,0.1h-6.8v0.7
		c0,1.1,0.4,1.9,1.2,2.6c0.8,0.6,1.8,1,3,1c0.9,0,1.7-0.2,2.5-0.6c0.8-0.4,1.3-0.6,1.4-0.6c0.4,0,0.7,0.2,0.9,0.5
		c0.3,0.3,0.4,0.7,0.4,1c0,0.5-0.5,1.1-1.5,1.6c-1,0.5-2.3,0.8-3.8,0.8c-2.2,0-4-0.6-5.3-1.8C294.5,49.7,293.8,48.2,293.8,46.3z
		 M297.2,43.5h5.3c0.5,0,0.8-0.1,0.9-0.2s0.2-0.4,0.2-0.8c0-0.8-0.3-1.6-0.9-2.1c-0.6-0.6-1.4-0.9-2.3-0.9c-0.9,0-1.7,0.3-2.3,0.8
		s-1,1.3-1,2.1V43.5z"/>
	<path fill="#FFBA00" d="M314,51c0-0.1,0-0.2,0-0.3l6.4-20.7c0.3-0.8,1-1.2,2.3-1.2c1.3,0,2,0.4,2.3,1.1l6.3,20.7
		c0,0.1,0.1,0.2,0.1,0.3c0,0.4-0.2,0.7-0.7,1c-0.5,0.3-1,0.4-1.6,0.4c-0.7,0-1.1-0.2-1.3-0.7l-1.3-4.6h-7.9l-1.3,4.6
		c-0.1,0.5-0.5,0.7-1.2,0.7c-0.5,0-1-0.1-1.4-0.4C314.3,51.7,314,51.4,314,51z M319.4,44.4h6.4l-3.2-11L319.4,44.4z"/>
	<path fill="#FFBA00" d="M333,58.5V38.3c0-0.3,0.2-0.6,0.5-0.8s0.7-0.3,1.1-0.3c0.4,0,0.8,0.1,1.1,0.3s0.4,0.5,0.4,0.8v1.2
		c0.4-0.7,1-1.3,1.7-1.7c0.8-0.5,1.6-0.7,2.6-0.7c1.6,0,3,0.6,4.1,1.9s1.7,2.7,1.7,4.4v2.9c0,1.7-0.6,3.1-1.7,4.4
		c-1.1,1.3-2.4,1.9-3.9,1.9c-0.9,0-1.8-0.2-2.5-0.7c-0.8-0.5-1.3-1.1-1.7-1.8v8.3c0,0.3-0.2,0.6-0.5,0.8c-0.3,0.2-0.7,0.3-1.2,0.3
		c-0.5,0-0.9-0.1-1.2-0.3C333.2,59,333,58.8,333,58.5z M336.4,47c0,0.5,0.3,1,1,1.7c0.7,0.6,1.4,1,2.3,1s1.6-0.3,2.3-1
		c0.7-0.7,1-1.5,1-2.3v-2.9c0-0.8-0.3-1.6-1-2.3c-0.7-0.7-1.4-1-2.3-1c-0.8,0-1.6,0.3-2.2,0.9c-0.6,0.6-1,1.4-1,2.4V47z"/>
	<path fill="#FFBA00" d="M348.9,58.5V38.3c0-0.3,0.2-0.6,0.5-0.8s0.7-0.3,1.1-0.3c0.4,0,0.8,0.1,1.1,0.3s0.4,0.5,0.4,0.8v1.2
		c0.4-0.7,1-1.3,1.7-1.7c0.8-0.5,1.6-0.7,2.6-0.7c1.6,0,3,0.6,4.1,1.9s1.7,2.7,1.7,4.4v2.9c0,1.7-0.6,3.1-1.7,4.4
		c-1.1,1.3-2.4,1.9-3.9,1.9c-0.9,0-1.8-0.2-2.5-0.7c-0.8-0.5-1.3-1.1-1.7-1.8v8.3c0,0.3-0.2,0.6-0.5,0.8c-0.3,0.2-0.7,0.3-1.2,0.3
		c-0.5,0-0.9-0.1-1.2-0.3C349.1,59,348.9,58.8,348.9,58.5z M352.3,47c0,0.5,0.3,1,1,1.7c0.7,0.6,1.4,1,2.3,1s1.6-0.3,2.3-1
		c0.7-0.7,1-1.5,1-2.3v-2.9c0-0.8-0.3-1.6-1-2.3c-0.7-0.7-1.4-1-2.3-1c-0.8,0-1.6,0.3-2.2,0.9c-0.6,0.6-1,1.4-1,2.4V47z"/>
	<path fill="#FFBA00" d="M370,48.9c0-0.4,0.1-0.8,0.4-1.2s0.6-0.6,1-0.6c0.2,0,0.5,0.1,0.8,0.4c0.3,0.3,0.7,0.6,1,0.9
		c0.3,0.3,0.8,0.6,1.5,0.9s1.4,0.4,2.2,0.4c1.2,0,2.2-0.3,2.9-0.9c0.7-0.6,1.1-1.4,1.1-2.5c0-1-0.4-1.9-1.1-2.6
		c-0.7-0.7-1.6-1.2-2.6-1.6c-1-0.4-2-0.8-3.1-1.3c-1-0.5-1.9-1.2-2.6-2.1c-0.7-0.9-1.1-2.1-1.1-3.5c0-1.1,0.2-2.1,0.7-2.9
		c0.4-0.8,1-1.5,1.8-1.9c0.7-0.4,1.5-0.8,2.4-1s1.7-0.3,2.6-0.3c0.6,0,1.2,0,1.8,0.1c0.6,0.1,1.3,0.2,1.9,0.4
		c0.6,0.2,1.1,0.4,1.5,0.7c0.4,0.3,0.6,0.7,0.6,1.1s-0.1,0.8-0.4,1.2c-0.3,0.4-0.6,0.6-1,0.6c-0.2,0-0.5-0.1-0.9-0.3
		c-0.4-0.2-0.8-0.4-1.5-0.6c-0.6-0.2-1.3-0.3-2.1-0.3c-1.2,0-2.2,0.2-2.9,0.7c-0.7,0.5-1.1,1.2-1.1,2.2c0,0.6,0.2,1.2,0.6,1.7
		c0.4,0.5,0.9,0.8,1.5,1.1s1.3,0.6,2,0.9c0.7,0.3,1.5,0.6,2.2,1c0.7,0.4,1.4,0.8,2,1.3c0.6,0.5,1.1,1.2,1.5,2.1s0.6,1.9,0.6,3.1
		c0,2.2-0.7,3.9-2,5c-1.3,1.2-3.1,1.7-5.3,1.7c-2,0-3.6-0.4-5-1.2C370.7,50.6,370,49.7,370,48.9z"/>
	<path fill="#FFBA00" d="M386.9,47.4v-16c0-0.3,0.2-0.6,0.5-0.8c0.3-0.2,0.7-0.3,1.2-0.3s0.8,0.1,1.2,0.3c0.4,0.2,0.5,0.5,0.5,0.8
		v5.9h3.9c0.3,0,0.5,0.1,0.7,0.4s0.3,0.5,0.3,0.9s-0.1,0.6-0.3,0.9c-0.2,0.2-0.4,0.4-0.7,0.4h-3.9v7.7c0,0.8,0.2,1.3,0.5,1.6
		c0.3,0.3,0.9,0.5,1.7,0.5h1.1c0.4,0,0.8,0.1,1.1,0.4s0.4,0.6,0.4,1s-0.1,0.7-0.4,1c-0.3,0.3-0.6,0.4-1.1,0.4h-1.1
		C388.7,52.4,386.9,50.7,386.9,47.4z"/>
	<path fill="#FFBA00" d="M396.3,46.3v-2.9c0-1.7,0.7-3.2,2-4.4c1.3-1.3,2.9-1.9,4.7-1.9c1.8,0,3.3,0.6,4.6,1.9c1.3,1.2,2,2.7,2,4.4
		v2.9c0,1.7-0.7,3.1-2,4.4c-1.3,1.3-2.9,1.9-4.6,1.9c-1.8,0-3.3-0.6-4.6-1.9C396.9,49.4,396.3,47.9,396.3,46.3z M399.6,46.3
		c0,0.9,0.3,1.6,1,2.3c0.6,0.7,1.4,1,2.3,1c0.9,0,1.6-0.3,2.3-1c0.7-0.7,1-1.5,1-2.3v-2.9c0-0.8-0.3-1.6-1-2.3c-0.7-0.7-1.4-1-2.3-1
		c-0.9,0-1.7,0.3-2.3,1c-0.6,0.7-1,1.4-1,2.3V46.3z"/>
	<path fill="#FFBA00" d="M412.1,51.3v-13c0-0.3,0.2-0.6,0.5-0.8s0.7-0.3,1.2-0.3c0.4,0,0.8,0.1,1.1,0.3c0.3,0.2,0.4,0.5,0.4,0.8v1.4
		c0.4-0.8,0.9-1.4,1.6-1.9c0.7-0.5,1.5-0.8,2.4-0.8h1c0.3,0,0.6,0.1,0.9,0.4s0.4,0.6,0.4,1.1c0,0.4-0.1,0.8-0.4,1.1
		c-0.3,0.3-0.6,0.5-0.9,0.5h-1c-1,0-1.9,0.4-2.7,1.3c-0.8,0.9-1.2,2-1.2,3.4v6.5c0,0.3-0.2,0.5-0.5,0.8c-0.3,0.2-0.7,0.4-1.2,0.4
		c-0.5,0-0.9-0.1-1.2-0.4C412.3,51.8,412.1,51.5,412.1,51.3z"/>
	<path fill="#FFBA00" d="M422.4,46.3v-3c0-1.7,0.7-3.1,2-4.4c1.3-1.2,2.9-1.8,4.7-1.8c1.7,0,3.2,0.6,4.5,1.7
		c1.2,1.1,1.9,2.5,1.9,4.2c0,0.7-0.1,1.2-0.2,1.6c-0.1,0.4-0.4,0.7-0.7,0.8c-0.3,0.2-0.6,0.3-0.9,0.3s-0.6,0.1-1.1,0.1h-6.8v0.7
		c0,1.1,0.4,1.9,1.2,2.6c0.8,0.6,1.8,1,3,1c0.9,0,1.7-0.2,2.5-0.6c0.8-0.4,1.3-0.6,1.4-0.6c0.4,0,0.7,0.2,0.9,0.5
		c0.3,0.3,0.4,0.7,0.4,1c0,0.5-0.5,1.1-1.5,1.6c-1,0.5-2.3,0.8-3.8,0.8c-2.2,0-4-0.6-5.3-1.8C423.1,49.7,422.4,48.2,422.4,46.3z
		 M425.7,43.5h5.3c0.5,0,0.8-0.1,0.9-0.2s0.2-0.4,0.2-0.8c0-0.8-0.3-1.6-0.9-2.1c-0.6-0.6-1.4-0.9-2.3-0.9c-0.9,0-1.7,0.3-2.3,0.8
		s-1,1.3-1,2.1V43.5z"/>
</g>
<g>
	<path fill-rule="evenodd" clip-rule="evenodd" fill="#FCB935" d="M39.5,26.6c1.9-2.6,4.6-2.6,4.6-2.6s0.4,2.4-1.5,4.7
		c-2.1,2.5-4.4,2.1-4.4,2.1S37.7,28.9,39.5,26.6z"/>
	<path fill-rule="evenodd" clip-rule="evenodd" fill="#FCB935" d="M38.4,32.5c1,0,2.8-1.4,5.3-1.4c4.1,0,5.8,2.9,5.8,2.9
		s-3.2,1.6-3.2,5.6c0,4.5,4,6,4,6s-2.8,7.8-6.5,7.8c-1.7,0-3.1-1.2-4.9-1.2c-1.8,0-3.7,1.2-4.9,1.2c-3.4,0-7.8-7.4-7.8-13.4
		c0-5.9,3.7-8.9,7.1-8.9C35.5,31.2,37.3,32.5,38.4,32.5z"/>
</g>
</svg>
