<?xml version="1.0" encoding="utf-8"?>
<!-- Generator: Adobe Illustrator 18.1.1, SVG Export Plug-In . SVG Version: 6.00 Build 0)  -->
<!DOCTYPE svg PUBLIC "-//W3C//DTD SVG 1.1//EN" "http://www.w3.org/Graphics/SVG/1.1/DTD/svg11.dtd">
<svg version="1.1" id="Layer_1" xmlns="http://www.w3.org/2000/svg" xmlns:xlink="http://www.w3.org/1999/xlink" x="0px" y="0px"
	 viewBox="0 0 204 204" enable-background="new 0 0 204 204" xml:space="preserve">
<g>
	<path fill="#FCB935" d="M102,204C45.8,204,0,158.2,0,102S45.8,0,102,0s102,45.8,102,102S158.2,204,102,204z M102,4C48,4,4,48,4,102
		c0,54,44,98,98,98c54,0,98-44,98-98C200,48,156,4,102,4z"/>
</g>
<g opacity="0.4">
	<g>
		<path fill="#FCB935" d="M102,192L102,192c-10.3,0-20.4-1.7-30-5.1c-1-0.4-1.6-1.5-1.2-2.6c0.4-1,1.5-1.6,2.6-1.2
			c9.2,3.2,18.8,4.9,28.6,4.9c1.1,0,2,0.9,2,2S103.1,192,102,192z M131.4,187c-0.8,0-1.6-0.5-1.9-1.3c-0.4-1,0.2-2.2,1.2-2.6
			c2.9-1,5.7-2.2,8.4-3.5c1-0.5,2.2-0.1,2.7,0.9s0.1,2.2-0.9,2.7c-2.9,1.4-5.8,2.6-8.8,3.7C131.8,186.9,131.6,187,131.4,187z
			 M64.1,183.4c-0.3,0-0.6-0.1-0.9-0.2c-9.2-4.4-17.6-10.3-24.8-17.6c-0.8-0.8-0.8-2,0-2.8c0.8-0.8,2-0.8,2.8,0
			c6.9,6.9,14.9,12.6,23.7,16.8c1,0.5,1.4,1.7,0.9,2.7C65.6,183,64.8,183.4,64.1,183.4z M164.2,166.2c-0.5,0-1-0.2-1.4-0.6
			c-0.8-0.8-0.8-2,0-2.8c6.9-6.9,12.6-14.9,16.8-23.7c0.5-1,1.7-1.4,2.7-0.9c1,0.5,1.4,1.7,0.9,2.7c-4.4,9.2-10.3,17.6-17.6,24.8
			C165.3,166,164.7,166.2,164.2,166.2z M22.6,142c-0.7,0-1.5-0.4-1.8-1.1c-1.4-2.9-2.6-5.8-3.7-8.8c-0.4-1,0.2-2.2,1.2-2.6
			c1-0.4,2.2,0.2,2.6,1.2c1,2.9,2.2,5.7,3.5,8.4c0.5,1,0.1,2.2-0.9,2.7C23.2,142,22.9,142,22.6,142z M185,133.3
			c-0.2,0-0.4,0-0.7-0.1c-1-0.4-1.6-1.5-1.2-2.6c3.2-9.2,4.9-18.8,4.9-28.7v-0.2c0-1.1,0.9-2,2-2s2,0.9,2,2v0.2
			c0,10.3-1.7,20.4-5.1,30C186.6,132.8,185.8,133.3,185,133.3z M14,104c-1.1,0-2-0.9-2-2V102c0-10.3,1.7-20.3,5.1-29.9
			c0.4-1,1.5-1.6,2.6-1.2c1,0.4,1.6,1.5,1.2,2.6C17.6,82.6,16,92.2,16,102C16,103.1,15.1,104,14,104z M184.9,74.5
			c-0.8,0-1.6-0.5-1.9-1.3c-1-2.9-2.2-5.7-3.5-8.4c-0.5-1-0.1-2.2,0.9-2.7c1-0.5,2.2-0.1,2.7,0.9c1.4,2.9,2.6,5.8,3.7,8.8
			c0.4,1-0.2,2.2-1.2,2.6C185.4,74.5,185.2,74.5,184.9,74.5z M22.5,66.1c-0.3,0-0.6-0.1-0.9-0.2c-1-0.5-1.4-1.7-0.9-2.7
			c4.4-9.2,10.3-17.6,17.6-24.8c0.8-0.8,2-0.8,2.8,0c0.8,0.8,0.8,2,0,2.8C34.2,48.2,28.6,56.2,24.3,65C24,65.7,23.3,66.1,22.5,66.1z
			 M164.1,41.7c-0.5,0-1-0.2-1.4-0.6c-6.9-6.9-14.9-12.6-23.7-16.8c-1-0.5-1.4-1.7-0.9-2.7c0.5-1,1.7-1.4,2.7-0.9
			c9.2,4.4,17.6,10.3,24.8,17.5c0.8,0.8,0.8,2,0,2.8C165.1,41.5,164.6,41.7,164.1,41.7z M63.9,24.6c-0.7,0-1.5-0.4-1.8-1.1
			c-0.5-1-0.1-2.2,0.9-2.7c2.9-1.4,5.8-2.6,8.8-3.7c1-0.4,2.2,0.2,2.6,1.2c0.4,1-0.2,2.2-1.2,2.6c-2.9,1-5.7,2.2-8.4,3.5
			C64.5,24.6,64.2,24.6,63.9,24.6z M131.2,21c-0.2,0-0.4,0-0.7-0.1c-9.1-3.2-18.7-4.8-28.5-4.8h-0.1c-1.1,0-2-0.9-2-2s0.9-2,2-2h0.1
			c10.2,0,20.3,1.7,29.9,5.1c1,0.4,1.6,1.5,1.2,2.6C132.8,20.4,132,21,131.2,21z"/>
	</g>
</g>
<g>
	<g>
		<path fill="#FCB935" d="M75.3,76.7V50.3c0-0.4,0.2-0.7,0.5-0.9c0.3-0.2,0.6-0.3,1-0.3h13.9c0.4,0,0.6,0.1,0.8,0.4
			c0.2,0.3,0.3,0.6,0.3,1c0,0.4-0.1,0.8-0.3,1.1c-0.2,0.3-0.5,0.4-0.8,0.4H78.6v10h6.1c0.4,0,0.6,0.1,0.8,0.4c0.2,0.3,0.3,0.6,0.3,1
			c0,0.3-0.1,0.7-0.3,0.9c-0.2,0.3-0.5,0.4-0.8,0.4h-6.1v11.9c0,0.4-0.2,0.6-0.5,0.8c-0.3,0.2-0.7,0.3-1.2,0.3
			c-0.4,0-0.8-0.1-1.2-0.3C75.5,77.4,75.3,77.1,75.3,76.7z"/>
	</g>
	<g>
		<path fill="#FCB935" d="M94.8,76.7V49.1c0-0.3,0.2-0.6,0.5-0.8c0.3-0.2,0.7-0.3,1.2-0.3s0.9,0.1,1.2,0.3c0.3,0.2,0.5,0.5,0.5,0.8
			v27.6c0,0.3-0.2,0.6-0.5,0.8c-0.3,0.2-0.7,0.4-1.2,0.4c-0.4,0-0.8-0.1-1.1-0.4C94.9,77.3,94.8,77,94.8,76.7z"/>
	</g>
	<g>
		<path fill="#FCB935" d="M103.2,53.5c-0.4-0.4-0.6-0.8-0.6-1.3c0-0.5,0.2-0.9,0.6-1.3c0.4-0.4,0.9-0.6,1.5-0.6c0.6,0,1,0.2,1.4,0.6
			c0.4,0.4,0.6,0.8,0.6,1.3c0,0.5-0.2,0.9-0.6,1.3c-0.4,0.4-0.9,0.6-1.4,0.6S103.6,53.9,103.2,53.5z M103,76.7V60.4
			c0-0.3,0.2-0.6,0.5-0.8c0.3-0.2,0.7-0.3,1.1-0.3c0.5,0,0.9,0.1,1.2,0.3c0.3,0.2,0.5,0.5,0.5,0.8v16.3c0,0.3-0.2,0.6-0.5,0.8
			s-0.7,0.4-1.2,0.4c-0.4,0-0.8-0.1-1.1-0.4S103,77,103,76.7z"/>
	</g>
	<g>
		<path fill="#FCB935" d="M111,85.7V60.4c0-0.3,0.2-0.6,0.5-0.8c0.3-0.2,0.7-0.3,1.1-0.3c0.4,0,0.8,0.1,1.1,0.3
			c0.3,0.2,0.4,0.5,0.4,0.8V62c0.5-0.9,1.2-1.6,2.1-2.2s2-0.9,3.2-0.9c2,0,3.6,0.7,5,2.2c1.4,1.5,2.1,3.3,2.1,5.3v4
			c0,2-0.7,3.8-2.1,5.3c-1.4,1.6-3,2.3-4.8,2.3c-1.2,0-2.2-0.3-3.2-0.9c-1-0.6-1.7-1.3-2.1-2.2v10.6c0,0.3-0.2,0.6-0.5,0.8
			c-0.3,0.2-0.7,0.4-1.2,0.4s-0.8-0.1-1.1-0.4C111.1,86.3,111,86,111,85.7z M114.3,71.6c0,0.7,0.5,1.4,1.4,2.3
			c0.9,0.9,1.9,1.3,3.1,1.3c1.2,0,2.2-0.5,3.1-1.4c0.9-1,1.4-2,1.4-3.2v-4c0-1.2-0.5-2.2-1.4-3.2s-2-1.4-3.2-1.4
			c-1.2,0-2.2,0.4-3.1,1.3s-1.3,2-1.3,3.3V71.6z"/>
	</g>
</g>
<g>
	<g>
		<path fill="#FCB935" d="M74.1,108.1v-4c0-2,0.8-3.8,2.3-5.3c1.5-1.5,3.4-2.3,5.5-2.3c2.1,0,3.9,0.7,5.5,2.2
			c1.5,1.5,2.3,3.3,2.3,5.3v4c0,2-0.8,3.8-2.3,5.3c-1.6,1.6-3.4,2.3-5.5,2.3s-3.9-0.8-5.4-2.3C74.9,111.9,74.1,110.1,74.1,108.1z
			 M77.4,108c0,1.2,0.4,2.3,1.3,3.3c0.9,0.9,1.9,1.4,3.2,1.4c1.2,0,2.3-0.5,3.2-1.4c0.9-1,1.3-2,1.3-3.2v-4c0-1.2-0.4-2.2-1.3-3.2
			c-0.9-0.9-2-1.4-3.2-1.4c-1.2,0-2.3,0.5-3.2,1.4s-1.3,2-1.3,3.2V108z"/>
	</g>
	<g>
		<path fill="#FCB935" d="M93.6,114.2V97.9c0-0.3,0.2-0.6,0.5-0.8c0.3-0.2,0.7-0.3,1.2-0.3c0.4,0,0.7,0.1,1,0.3
			c0.3,0.2,0.5,0.5,0.5,0.8v1.6c0.4-0.9,1.1-1.6,2-2.2c0.9-0.6,2-0.9,3.2-0.9c1.9,0,3.5,0.7,4.9,2.2c1.4,1.5,2.1,3.3,2.1,5.3v10.2
			c0,0.4-0.2,0.7-0.5,0.9c-0.3,0.2-0.7,0.3-1.2,0.3c-0.4,0-0.8-0.1-1.1-0.3c-0.3-0.2-0.5-0.5-0.5-0.9v-10.1c0-1.2-0.4-2.2-1.3-3.2
			s-1.9-1.4-3.2-1.4c-1.1,0-2.1,0.4-3,1.3c-0.9,0.9-1.3,2-1.3,3.3v10.1c0,0.3-0.2,0.6-0.5,0.8c-0.3,0.2-0.7,0.4-1.1,0.4
			c-0.4,0-0.8-0.1-1.1-0.4C93.8,114.8,93.6,114.5,93.6,114.2z"/>
	</g>
</g>
<g>
	<g>
		<path fill="#FCB935" d="M92,132c-0.4-0.4-0.6-0.8-0.6-1.3c0-0.5,0.2-0.9,0.6-1.3c0.4-0.4,0.9-0.6,1.5-0.6c0.6,0,1,0.2,1.4,0.6
			c0.4,0.4,0.6,0.8,0.6,1.3c0,0.5-0.2,0.9-0.6,1.3c-0.4,0.4-0.9,0.6-1.4,0.6C92.9,132.6,92.4,132.4,92,132z M91.8,155.2v-16.3
			c0-0.3,0.2-0.6,0.5-0.8c0.3-0.2,0.7-0.3,1.1-0.3c0.5,0,0.9,0.1,1.2,0.3c0.3,0.2,0.5,0.5,0.5,0.8v16.3c0,0.3-0.2,0.6-0.5,0.8
			c-0.3,0.2-0.7,0.4-1.2,0.4c-0.4,0-0.8-0.1-1.1-0.4C92,155.8,91.8,155.5,91.8,155.2z"/>
	</g>
	<g>
		<path fill="#FCB935" d="M99.7,150.4v-20.3c0-0.3,0.2-0.6,0.5-0.8c0.3-0.2,0.7-0.3,1.1-0.3c0.4,0,0.8,0.1,1.1,0.3
			c0.3,0.2,0.5,0.5,0.5,0.8v7.6h5c0.3,0,0.5,0.1,0.7,0.4c0.2,0.3,0.3,0.6,0.3,0.9s-0.1,0.6-0.3,0.9s-0.4,0.4-0.7,0.4h-5v10.1
			c0,1.1,0.2,1.9,0.7,2.4c0.5,0.5,1.3,0.7,2.5,0.7h1.2c0.4,0,0.8,0.1,1,0.4c0.2,0.3,0.4,0.6,0.4,1s-0.1,0.8-0.4,1.1s-0.6,0.5-1,0.5
			h-1.2C101.8,156.4,99.7,154.4,99.7,150.4z"/>
	</g>
</g>
<g>
	<path fill="#FCB935" d="M122,141c-0.8,0-1.5-0.7-1.5-1.5s0.7-1.5,1.5-1.5c8.3,0,15-6.7,15-15s-6.7-15-15-15c-0.8,0-1.5-0.7-1.5-1.5
		s0.7-1.5,1.5-1.5c9.9,0,18,8.1,18,18S131.9,141,122,141z"/>
</g>
</svg>
