<?xml version="1.0" encoding="utf-8"?>
<!-- Generator: Adobe Illustrator 18.1.1, SVG Export Plug-In . SVG Version: 6.00 Build 0)  -->
<!DOCTYPE svg PUBLIC "-//W3C//DTD SVG 1.1//EN" "http://www.w3.org/Graphics/SVG/1.1/DTD/svg11.dtd">
<svg version="1.1" id="Layer_1" xmlns="http://www.w3.org/2000/svg" xmlns:xlink="http://www.w3.org/1999/xlink" x="0px" y="0px"
	 viewBox="0 0 178.3 100" enable-background="new 0 0 178.3 100" xml:space="preserve">
<path fill="#FCB935" d="M47.6,35.1c-0.1,0-0.2,0-0.3,0v-5c0-3-1.8-5.6-4.3-6.9c-5.1-3.5-4.8-13.8-4.9-15C37.6,5.3,32.9,5,27.8,5
	c-0.1,0-0.2,0-0.3,0C27,5,24,5,23.4,5c-0.6,0-3.2,0-3.7,0c-0.1,0-0.2,0-0.3,0C14.2,5,9.4,5.4,9.1,8.1c-0.2,1.2,0.1,12-5.4,15.2
	c0.1,0,0.1,0,0.2,0C1.6,24.6,0,27.2,0,30V70c0,2.8,1.5,5.2,3.9,6.6c-0.1,0-0.1,0-0.2,0c5.5,3.2,5.2,14.1,5.4,15.2
	c0.3,2.8,5,3.1,10.2,3.1c0.1,0,0.2,0,0.3,0c0.5,0,3.1,0,3.7,0c0.6,0,3.6,0,4.1,0c0.1,0,0.2,0,0.3,0c5.1,0,9.8-0.4,10.2-3.1
	c0.1-1.2-0.2-11.5,4.9-15c2.6-1.3,4.3-3.9,4.3-6.9v-4.3c0.3-0.1,0.6-0.4,0.7-0.8V52.1c0-0.4-0.3-0.7-0.7-0.8v-7c0.1,0,0.2,0,0.3,0
	c1.3,0,2.3-1.1,2.4-2.4v-4.7C50,36.2,48.9,35.1,47.6,35.1z M42.6,70.1c0,1.7-1.4,3-3.1,3H7.8c-1.8,0-3.1-1.4-3.1-3V30.1
	c0-1.7,1.4-3,3.1-3h31.6c1.8,0,3.1,1.4,3.1,3V70.1z"/>
<path fill="#FCB935" d="M170.5,0h-35.3c-4.3,0-7.8,3.5-7.8,7.8v84.3c0,4.3,3.5,7.8,7.8,7.8h35.3c4.3,0,7.8-3.5,7.8-7.8V7.8
	C178.3,3.5,174.8,0,170.5,0z M149,8.3h7.7c0.6,0,1,0.5,1,1c0,0.6-0.5,1-1,1H149c-0.6,0-1-0.5-1-1C147.9,8.8,148.4,8.3,149,8.3z
	 M144.5,7.9c0.7,0,1.2,0.6,1.2,1.2c0,0.7-0.6,1.2-1.2,1.2c-0.7,0-1.2-0.6-1.2-1.2C143.2,8.5,143.8,7.9,144.5,7.9z M152.8,95.8
	c-2.7,0-4.9-2.2-4.9-4.9c0-2.7,2.2-4.9,4.9-4.9c2.7,0,4.9,2.2,4.9,4.9C157.7,93.6,155.6,95.8,152.8,95.8z M174.4,82.5h-43.2v-65
	h43.2V82.5z"/>
<g>
	<path fill="#FCB935" d="M81.6,51.3c-0.2-0.3-0.4-0.8-0.4-1.3c0-0.5,0.1-0.9,0.4-1.3c0.2-0.3,0.6-0.5,1-0.5h4.6v-4.5
		c0-0.4,0.2-0.7,0.5-1s0.8-0.4,1.2-0.4c0.5,0,0.9,0.1,1.2,0.4c0.3,0.3,0.5,0.6,0.5,1v4.5h4.5c0.4,0,0.7,0.2,1,0.5
		c0.3,0.4,0.4,0.8,0.4,1.3c0,0.5-0.1,0.9-0.4,1.3c-0.3,0.3-0.6,0.5-1,0.5h-4.5v4.5c0,0.4-0.2,0.7-0.5,1c-0.3,0.2-0.7,0.4-1.2,0.4
		c-0.5,0-0.9-0.1-1.3-0.4c-0.3-0.2-0.5-0.6-0.5-1v-4.5h-4.6C82.2,51.8,81.9,51.6,81.6,51.3z"/>
</g>
</svg>
